<svg xmlns="http://www.w3.org/2000/svg" xmlns:xlink="http://www.w3.org/1999/xlink" width="512" zoomAndPan="magnify" viewBox="0 0 384 383.999986" height="512" preserveAspectRatio="xMidYMid meet" version="1.0"><path fill="#000000" d="M 212.46875 234.367188 L 165.121094 234.367188 C 155.59375 234.367188 147.839844 226.601562 147.839844 217.058594 L 147.839844 169.648438 C 147.839844 160.105469 155.59375 152.34375 165.121094 152.34375 L 212.46875 152.34375 C 222 152.34375 229.75 160.105469 229.75 169.648438 L 229.75 217.058594 C 229.75 226.601562 222 234.367188 212.46875 234.367188 Z M 165.121094 162.257812 C 161.054688 162.257812 157.742188 165.570312 157.742188 169.648438 L 157.742188 217.058594 C 157.742188 221.136719 161.050781 224.449219 165.121094 224.449219 L 212.46875 224.449219 C 216.535156 224.449219 219.847656 221.136719 219.847656 217.058594 L 219.847656 169.648438 C 219.847656 165.574219 216.539062 162.257812 212.46875 162.257812 Z M 165.121094 162.257812 " fill-opacity="1" fill-rule="nonzero"/><path fill="#000000" d="M 196.425781 208.042969 L 189.300781 208.042969 L 187.5 203.0625 L 174.925781 203.0625 L 173.074219 208.042969 L 165.953125 208.042969 L 177.300781 178.667969 L 185.128906 178.667969 Z M 185.78125 197.5625 L 181.207031 184.921875 L 176.632812 197.5625 Z M 185.78125 197.5625 " fill-opacity="1" fill-rule="nonzero"/><path fill="#000000" d="M 199.152344 178.667969 L 205.398438 178.667969 L 205.398438 208.042969 L 199.152344 208.042969 Z M 199.152344 178.667969 " fill-opacity="1" fill-rule="nonzero"/><path fill="#000000" d="M 161.855469 146.386719 C 159.121094 146.386719 156.90625 144.167969 156.90625 141.429688 L 156.90625 134.867188 C 156.90625 132.128906 159.121094 129.910156 161.855469 129.910156 C 164.589844 129.910156 166.804688 132.128906 166.804688 134.867188 L 166.804688 141.429688 C 166.804688 144.167969 164.589844 146.386719 161.855469 146.386719 Z M 161.855469 146.386719 " fill-opacity="1" fill-rule="nonzero"/><path fill="#000000" d="M 188.585938 146.386719 C 185.855469 146.386719 183.636719 144.167969 183.636719 141.429688 L 183.636719 134.867188 C 183.636719 132.128906 185.855469 129.910156 188.585938 129.910156 C 191.320312 129.910156 193.539062 132.128906 193.539062 134.867188 L 193.539062 141.429688 C 193.539062 144.167969 191.320312 146.386719 188.585938 146.386719 Z M 188.585938 146.386719 " fill-opacity="1" fill-rule="nonzero"/><path fill="#000000" d="M 215.316406 146.386719 C 212.582031 146.386719 210.367188 144.167969 210.367188 141.429688 L 210.367188 134.867188 C 210.367188 132.128906 212.582031 129.910156 215.316406 129.910156 C 218.050781 129.910156 220.265625 132.128906 220.265625 134.867188 L 220.265625 141.429688 C 220.269531 144.167969 218.054688 146.386719 215.316406 146.386719 Z M 215.316406 146.386719 " fill-opacity="1" fill-rule="nonzero"/><path fill="#000000" d="M 246.792969 169.425781 L 240.242188 169.425781 C 237.507812 169.425781 235.292969 167.207031 235.292969 164.472656 C 235.292969 161.734375 237.507812 159.515625 240.242188 159.515625 L 246.792969 159.515625 C 249.523438 159.515625 251.742188 161.734375 251.742188 164.472656 C 251.742188 167.207031 249.523438 169.425781 246.792969 169.425781 Z M 246.792969 169.425781 " fill-opacity="1" fill-rule="nonzero"/><path fill="#000000" d="M 246.792969 196.199219 L 240.242188 196.199219 C 237.507812 196.199219 235.292969 193.980469 235.292969 191.242188 C 235.292969 188.503906 237.507812 186.285156 240.242188 186.285156 L 246.792969 186.285156 C 249.523438 186.285156 251.742188 188.503906 251.742188 191.242188 C 251.742188 193.980469 249.523438 196.199219 246.792969 196.199219 Z M 246.792969 196.199219 " fill-opacity="1" fill-rule="nonzero"/><path fill="#000000" d="M 246.792969 222.96875 L 240.242188 222.96875 C 237.507812 222.96875 235.292969 220.75 235.292969 218.011719 C 235.292969 215.273438 237.507812 213.058594 240.242188 213.058594 L 246.792969 213.058594 C 249.523438 213.058594 251.742188 215.273438 251.742188 218.011719 C 251.742188 220.75 249.523438 222.96875 246.792969 222.96875 Z M 246.792969 222.96875 " fill-opacity="1" fill-rule="nonzero"/><path fill="#000000" d="M 135.210938 169.425781 L 128.660156 169.425781 C 125.925781 169.425781 123.710938 167.207031 123.710938 164.472656 C 123.710938 161.734375 125.925781 159.515625 128.660156 159.515625 L 135.210938 159.515625 C 137.945312 159.515625 140.160156 161.734375 140.160156 164.472656 C 140.160156 167.207031 137.945312 169.425781 135.210938 169.425781 Z M 135.210938 169.425781 " fill-opacity="1" fill-rule="nonzero"/><path fill="#000000" d="M 135.210938 196.199219 L 128.660156 196.199219 C 125.925781 196.199219 123.710938 193.980469 123.710938 191.242188 C 123.710938 188.503906 125.925781 186.285156 128.660156 186.285156 L 135.210938 186.285156 C 137.945312 186.285156 140.160156 188.503906 140.160156 191.242188 C 140.160156 193.980469 137.945312 196.199219 135.210938 196.199219 Z M 135.210938 196.199219 " fill-opacity="1" fill-rule="nonzero"/><path fill="#000000" d="M 135.210938 222.96875 L 128.660156 222.96875 C 125.925781 222.96875 123.710938 220.75 123.710938 218.011719 C 123.710938 215.273438 125.925781 213.058594 128.660156 213.058594 L 135.210938 213.058594 C 137.945312 213.058594 140.160156 215.273438 140.160156 218.011719 C 140.160156 220.75 137.945312 222.96875 135.210938 222.96875 Z M 135.210938 222.96875 " fill-opacity="1" fill-rule="nonzero"/><path fill="#000000" d="M 161.855469 256.800781 C 159.121094 256.800781 156.90625 254.582031 156.90625 251.84375 L 156.90625 245.285156 C 156.90625 242.546875 159.121094 240.328125 161.855469 240.328125 C 164.589844 240.328125 166.804688 242.546875 166.804688 245.285156 L 166.804688 251.84375 C 166.804688 254.582031 164.589844 256.800781 161.855469 256.800781 Z M 161.855469 256.800781 " fill-opacity="1" fill-rule="nonzero"/><path fill="#000000" d="M 188.585938 256.800781 C 185.855469 256.800781 183.636719 254.582031 183.636719 251.84375 L 183.636719 245.285156 C 183.636719 242.546875 185.855469 240.328125 188.585938 240.328125 C 191.320312 240.328125 193.539062 242.546875 193.539062 245.285156 L 193.539062 251.84375 C 193.539062 254.582031 191.320312 256.800781 188.585938 256.800781 Z M 188.585938 256.800781 " fill-opacity="1" fill-rule="nonzero"/><path fill="#000000" d="M 215.316406 256.800781 C 212.582031 256.800781 210.367188 254.582031 210.367188 251.84375 L 210.367188 245.285156 C 210.367188 242.546875 212.582031 240.328125 215.316406 240.328125 C 218.050781 240.328125 220.265625 242.546875 220.265625 245.285156 L 220.265625 251.84375 C 220.269531 254.582031 218.054688 256.800781 215.316406 256.800781 Z M 215.316406 256.800781 " fill-opacity="1" fill-rule="nonzero"/><path fill="#000000" d="M 141.183594 313.136719 C 122.40625 313.136719 105.894531 307.472656 94.03125 295.59375 C 77.355469 278.894531 72.222656 252.898438 79.578125 222.390625 C 86.71875 192.753906 104.890625 162.171875 130.738281 136.289062 C 184.714844 82.234375 256.082031 65.746094 289.816406 99.527344 C 323.554688 133.3125 307.085938 204.777344 253.109375 258.832031 C 218.117188 293.875 175.804688 313.136719 141.183594 313.136719 Z M 242.394531 91.617188 C 210.652344 91.617188 170.917969 110.070312 137.738281 143.300781 C 87.621094 193.488281 71.152344 258.660156 101.03125 288.582031 C 130.902344 318.496094 195.988281 302.003906 246.109375 251.820312 C 296.226562 201.632812 312.691406 136.460938 282.816406 106.539062 C 272.722656 96.429688 258.597656 91.617188 242.394531 91.617188 Z M 249.609375 255.328125 L 249.632812 255.328125 Z M 249.609375 255.328125 " fill-opacity="1" fill-rule="nonzero"/><path fill="#000000" d="M 242.664062 313.136719 C 208.042969 313.136719 165.734375 293.878906 130.738281 258.832031 C 76.757812 204.777344 60.292969 133.3125 94.03125 99.527344 C 127.765625 65.742188 199.132812 82.234375 253.109375 136.289062 C 278.953125 162.171875 297.125 192.753906 304.269531 222.390625 C 311.625 252.898438 306.488281 278.894531 289.816406 295.59375 C 277.957031 307.472656 261.441406 313.136719 242.664062 313.136719 Z M 137.742188 251.820312 C 187.859375 302.011719 252.941406 318.5 282.820312 288.582031 C 312.695312 258.664062 296.230469 193.492188 246.109375 143.300781 C 195.992188 93.109375 130.917969 76.625 101.035156 106.539062 C 71.15625 136.457031 87.625 201.628906 137.742188 251.820312 Z M 137.742188 251.820312 " fill-opacity="1" fill-rule="nonzero"/><path fill="#000000" d="M 293.390625 94.824219 C 293.390625 95.730469 293.304688 96.632812 293.125 97.523438 C 292.949219 98.414062 292.6875 99.28125 292.339844 100.121094 C 291.992188 100.960938 291.566406 101.757812 291.0625 102.511719 C 290.558594 103.269531 289.984375 103.96875 289.34375 104.609375 C 288.703125 105.253906 288.003906 105.828125 287.25 106.332031 C 286.492188 106.835938 285.699219 107.261719 284.859375 107.609375 C 284.019531 107.960938 283.15625 108.222656 282.265625 108.398438 C 281.375 108.578125 280.476562 108.664062 279.570312 108.664062 C 278.664062 108.664062 277.761719 108.578125 276.875 108.398438 C 275.984375 108.222656 275.117188 107.960938 274.28125 107.609375 C 273.441406 107.261719 272.644531 106.835938 271.890625 106.332031 C 271.136719 105.828125 270.4375 105.253906 269.796875 104.609375 C 269.15625 103.96875 268.582031 103.269531 268.078125 102.511719 C 267.574219 101.757812 267.148438 100.960938 266.800781 100.121094 C 266.453125 99.28125 266.191406 98.414062 266.011719 97.523438 C 265.835938 96.632812 265.746094 95.730469 265.746094 94.824219 C 265.746094 93.914062 265.835938 93.015625 266.011719 92.125 C 266.191406 91.230469 266.453125 90.367188 266.800781 89.527344 C 267.148438 88.6875 267.574219 87.890625 268.078125 87.132812 C 268.582031 86.378906 269.15625 85.679688 269.796875 85.035156 C 270.4375 84.394531 271.136719 83.820312 271.890625 83.316406 C 272.644531 82.808594 273.441406 82.382812 274.28125 82.035156 C 275.117188 81.6875 275.984375 81.425781 276.875 81.25 C 277.761719 81.070312 278.664062 80.980469 279.570312 80.980469 C 280.476562 80.980469 281.375 81.070312 282.265625 81.25 C 283.15625 81.425781 284.019531 81.6875 284.859375 82.035156 C 285.699219 82.382812 286.492188 82.808594 287.25 83.316406 C 288.003906 83.820312 288.703125 84.394531 289.34375 85.035156 C 289.984375 85.679688 290.558594 86.378906 291.0625 87.132812 C 291.566406 87.890625 291.992188 88.6875 292.339844 89.527344 C 292.6875 90.367188 292.949219 91.230469 293.125 92.125 C 293.304688 93.015625 293.390625 93.914062 293.390625 94.824219 Z M 293.390625 94.824219 " fill-opacity="1" fill-rule="nonzero"/><path fill="#000000" d="M 307.828125 293.710938 C 307.828125 294.363281 307.796875 295.015625 307.734375 295.664062 C 307.667969 296.3125 307.574219 296.957031 307.445312 297.597656 C 307.320312 298.234375 307.160156 298.867188 306.972656 299.492188 C 306.78125 300.117188 306.5625 300.730469 306.3125 301.332031 C 306.066406 301.933594 305.785156 302.523438 305.480469 303.097656 C 305.171875 303.675781 304.839844 304.234375 304.476562 304.777344 C 304.113281 305.316406 303.726562 305.839844 303.3125 306.34375 C 302.902344 306.851562 302.464844 307.332031 302.003906 307.792969 C 301.542969 308.253906 301.0625 308.691406 300.558594 309.105469 C 300.054688 309.519531 299.53125 309.90625 298.988281 310.269531 C 298.449219 310.632812 297.890625 310.96875 297.316406 311.273438 C 296.742188 311.582031 296.152344 311.859375 295.550781 312.109375 C 294.949219 312.359375 294.335938 312.578125 293.714844 312.769531 C 293.089844 312.957031 292.460938 313.117188 291.820312 313.246094 C 291.179688 313.371094 290.539062 313.46875 289.890625 313.53125 C 289.242188 313.59375 288.59375 313.628906 287.941406 313.628906 C 287.289062 313.628906 286.640625 313.59375 285.992188 313.53125 C 285.34375 313.46875 284.699219 313.371094 284.058594 313.246094 C 283.421875 313.117188 282.789062 312.957031 282.167969 312.769531 C 281.542969 312.578125 280.929688 312.359375 280.328125 312.109375 C 279.726562 311.859375 279.140625 311.582031 278.566406 311.273438 C 277.992188 310.96875 277.433594 310.632812 276.890625 310.269531 C 276.351562 309.90625 275.828125 309.519531 275.324219 309.105469 C 274.820312 308.691406 274.339844 308.253906 273.878906 307.792969 C 273.417969 307.332031 272.980469 306.851562 272.566406 306.34375 C 272.152344 305.839844 271.765625 305.316406 271.40625 304.777344 C 271.042969 304.234375 270.707031 303.675781 270.402344 303.097656 C 270.09375 302.523438 269.816406 301.933594 269.566406 301.332031 C 269.316406 300.730469 269.097656 300.117188 268.910156 299.492188 C 268.71875 298.867188 268.5625 298.234375 268.433594 297.597656 C 268.308594 296.957031 268.210938 296.3125 268.148438 295.664062 C 268.085938 295.015625 268.054688 294.363281 268.054688 293.710938 C 268.054688 293.058594 268.085938 292.40625 268.148438 291.757812 C 268.210938 291.109375 268.308594 290.464844 268.433594 289.824219 C 268.5625 289.1875 268.71875 288.554688 268.910156 287.929688 C 269.097656 287.304688 269.316406 286.691406 269.566406 286.089844 C 269.816406 285.488281 270.09375 284.898438 270.402344 284.324219 C 270.707031 283.746094 271.042969 283.1875 271.40625 282.644531 C 271.765625 282.105469 272.152344 281.582031 272.566406 281.078125 C 272.980469 280.570312 273.417969 280.089844 273.878906 279.628906 C 274.339844 279.167969 274.820312 278.730469 275.324219 278.316406 C 275.828125 277.902344 276.351562 277.515625 276.890625 277.152344 C 277.433594 276.789062 277.992188 276.453125 278.566406 276.148438 C 279.140625 275.839844 279.726562 275.5625 280.328125 275.3125 C 280.929688 275.0625 281.542969 274.84375 282.167969 274.652344 C 282.789062 274.464844 283.421875 274.304688 284.0625 274.179688 C 284.699219 274.050781 285.34375 273.953125 285.992188 273.890625 C 286.640625 273.828125 287.289062 273.796875 287.941406 273.796875 C 288.59375 273.796875 289.242188 273.828125 289.890625 273.890625 C 290.539062 273.953125 291.179688 274.050781 291.820312 274.179688 C 292.460938 274.304688 293.089844 274.464844 293.714844 274.652344 C 294.335938 274.84375 294.949219 275.0625 295.550781 275.3125 C 296.152344 275.5625 296.742188 275.839844 297.316406 276.148438 C 297.890625 276.453125 298.449219 276.789062 298.988281 277.152344 C 299.53125 277.515625 300.054688 277.902344 300.558594 278.316406 C 301.0625 278.730469 301.542969 279.167969 302.003906 279.628906 C 302.464844 280.089844 302.902344 280.570312 303.3125 281.078125 C 303.726562 281.582031 304.113281 282.105469 304.476562 282.644531 C 304.839844 283.1875 305.171875 283.746094 305.480469 284.324219 C 305.785156 284.898438 306.066406 285.488281 306.3125 286.089844 C 306.5625 286.691406 306.78125 287.304688 306.972656 287.929688 C 307.160156 288.554688 307.320312 289.1875 307.445312 289.824219 C 307.574219 290.464844 307.667969 291.109375 307.734375 291.757812 C 307.796875 292.40625 307.828125 293.058594 307.828125 293.710938 Z M 307.828125 293.710938 " fill-opacity="1" fill-rule="nonzero"/><path fill="#000000" d="M 143.046875 251.839844 C 143.046875 252.785156 142.953125 253.722656 142.769531 254.648438 C 142.585938 255.578125 142.3125 256.476562 141.949219 257.351562 C 141.589844 258.226562 141.144531 259.054688 140.621094 259.84375 C 140.097656 260.628906 139.5 261.355469 138.832031 262.027344 C 138.164062 262.695312 137.4375 263.292969 136.652344 263.816406 C 135.867188 264.34375 135.039062 264.785156 134.164062 265.148438 C 133.292969 265.511719 132.394531 265.785156 131.464844 265.96875 C 130.539062 266.152344 129.605469 266.246094 128.660156 266.246094 C 127.714844 266.246094 126.78125 266.152344 125.855469 265.96875 C 124.925781 265.785156 124.027344 265.511719 123.15625 265.148438 C 122.28125 264.785156 121.453125 264.34375 120.667969 263.816406 C 119.882812 263.292969 119.15625 262.695312 118.488281 262.027344 C 117.820312 261.355469 117.222656 260.628906 116.699219 259.84375 C 116.175781 259.054688 115.730469 258.226562 115.371094 257.351562 C 115.007812 256.476562 114.734375 255.578125 114.550781 254.648438 C 114.367188 253.722656 114.273438 252.785156 114.273438 251.839844 C 114.273438 250.894531 114.367188 249.957031 114.550781 249.027344 C 114.734375 248.101562 115.007812 247.199219 115.371094 246.328125 C 115.730469 245.453125 116.175781 244.621094 116.699219 243.835938 C 117.222656 243.050781 117.820312 242.320312 118.488281 241.652344 C 119.15625 240.984375 119.882812 240.386719 120.667969 239.863281 C 121.453125 239.335938 122.28125 238.890625 123.15625 238.53125 C 124.027344 238.167969 124.925781 237.894531 125.855469 237.710938 C 126.78125 237.527344 127.714844 237.433594 128.660156 237.433594 C 129.605469 237.433594 130.539062 237.527344 131.464844 237.710938 C 132.394531 237.894531 133.292969 238.167969 134.164062 238.53125 C 135.039062 238.890625 135.867188 239.335938 136.652344 239.863281 C 137.4375 240.386719 138.164062 240.984375 138.832031 241.652344 C 139.5 242.320312 140.097656 243.050781 140.621094 243.835938 C 141.144531 244.621094 141.589844 245.453125 141.949219 246.328125 C 142.3125 247.199219 142.585938 248.101562 142.769531 249.027344 C 142.953125 249.957031 143.046875 250.894531 143.046875 251.839844 Z M 143.046875 251.839844 " fill-opacity="1" fill-rule="nonzero"/></svg>