<svg xmlns="http://www.w3.org/2000/svg" xmlns:xlink="http://www.w3.org/1999/xlink" width="512" zoomAndPan="magnify" viewBox="0 0 384 383.999986" height="512" preserveAspectRatio="xMidYMid meet" version="1.0"><defs><clipPath id="511efbf9f3"><path d="M 74.886719 74.886719 L 308.886719 74.886719 L 308.886719 308.886719 L 74.886719 308.886719 Z M 74.886719 74.886719 " clip-rule="nonzero"/></clipPath></defs><g clip-path="url(#511efbf9f3)"><path fill="#100f0d" d="M 281.585938 267.066406 L 281.585938 244.855469 L 301.085938 233.703125 L 301.085938 255.914062 Z M 254.285156 233.703125 L 273.785156 244.855469 L 273.785156 267.066406 L 254.285156 255.914062 Z M 221.121094 254.804688 L 195.785156 240.316406 L 195.785156 225.355469 L 221.121094 210.867188 C 222.339844 210.183594 223.085938 208.886719 223.085938 207.484375 L 223.085938 176.285156 C 223.085938 174.882812 222.339844 173.589844 221.121094 172.902344 L 195.785156 158.414062 L 195.785156 143.457031 L 219.308594 130.003906 L 246.484375 143.59375 L 246.484375 156.785156 C 246.484375 158.1875 247.230469 159.480469 248.449219 160.167969 L 273.785156 174.65625 L 273.785156 209.117188 L 248.449219 223.605469 C 247.230469 224.289062 246.484375 225.585938 246.484375 226.984375 L 246.484375 256.023438 L 223.085938 270.648438 L 223.085938 258.1875 C 223.085938 256.785156 222.339844 255.488281 221.121094 254.804688 Z M 195.785156 298.265625 L 195.785156 276.054688 L 215.285156 264.902344 L 215.285156 287.117188 Z M 168.484375 264.902344 L 187.984375 276.054688 L 187.984375 298.265625 L 168.484375 287.117188 Z M 137.285156 256.023438 L 137.285156 226.984375 C 137.285156 225.585938 136.539062 224.289062 135.320312 223.605469 L 109.984375 209.117188 L 109.984375 174.65625 L 135.320312 160.167969 C 136.539062 159.480469 137.285156 158.1875 137.285156 156.785156 L 137.285156 143.59375 L 164.464844 130.003906 L 187.984375 143.457031 L 187.984375 158.414062 L 162.652344 172.902344 C 161.433594 173.589844 160.6875 174.882812 160.6875 176.285156 L 160.6875 207.484375 C 160.6875 208.886719 161.433594 210.183594 162.652344 210.867188 L 187.984375 225.355469 L 187.984375 240.316406 L 162.652344 254.804688 C 161.433594 255.488281 160.6875 256.785156 160.6875 258.1875 L 160.6875 270.648438 Z M 109.984375 267.066406 L 109.984375 244.855469 L 129.484375 233.703125 L 129.484375 255.914062 Z M 82.6875 233.703125 L 102.1875 244.855469 L 102.1875 267.066406 L 82.6875 255.914062 Z M 106.085938 238.089844 L 86.648438 226.984375 L 106.085938 215.878906 L 125.523438 226.984375 Z M 82.6875 132.304688 L 102.1875 143.457031 L 102.1875 165.667969 L 82.6875 154.515625 Z M 106.085938 114.480469 L 125.523438 125.585938 L 106.085938 136.691406 L 86.648438 125.585938 Z M 109.984375 143.457031 L 129.484375 132.304688 L 129.484375 154.515625 L 109.984375 165.667969 Z M 191.886719 83.28125 L 211.324219 94.386719 L 191.886719 105.492188 L 172.445312 94.386719 Z M 195.785156 112.253906 L 215.285156 101.105469 L 215.285156 123.316406 L 195.785156 134.46875 Z M 168.484375 101.105469 L 187.984375 112.253906 L 187.984375 134.46875 L 168.484375 123.316406 Z M 191.886719 187.390625 L 172.445312 176.285156 L 191.886719 165.179688 L 211.324219 176.285156 Z M 195.785156 194.15625 L 215.285156 183.003906 L 215.285156 205.214844 L 195.785156 216.367188 Z M 168.484375 183.003906 L 187.984375 194.15625 L 187.984375 216.367188 L 168.484375 205.214844 Z M 191.886719 269.292969 L 172.445312 258.1875 L 191.886719 247.078125 L 211.324219 258.1875 Z M 277.6875 114.480469 L 297.125 125.585938 L 277.6875 136.691406 L 258.246094 125.585938 Z M 254.285156 132.304688 L 273.785156 143.457031 L 273.785156 165.667969 L 254.285156 154.515625 Z M 277.6875 238.089844 L 258.246094 226.984375 L 277.6875 215.878906 L 297.125 226.984375 Z M 281.585938 165.667969 L 281.585938 143.457031 L 301.085938 132.304688 L 301.085938 154.515625 Z M 306.921875 160.167969 C 308.140625 159.480469 308.886719 158.1875 308.886719 156.785156 L 308.886719 125.585938 C 308.886719 124.183594 308.140625 122.890625 306.921875 122.203125 L 279.621094 106.605469 C 278.433594 105.917969 276.9375 105.917969 275.75 106.605469 L 248.449219 122.203125 C 247.230469 122.890625 246.484375 124.183594 246.484375 125.585938 L 246.484375 134.878906 L 223.085938 123.179688 L 223.085938 94.386719 C 223.085938 92.984375 222.339844 91.6875 221.121094 91.003906 L 193.820312 75.402344 C 192.632812 74.71875 191.140625 74.71875 189.949219 75.402344 L 162.652344 91.003906 C 161.433594 91.6875 160.6875 92.984375 160.6875 94.386719 L 160.6875 123.179688 L 137.285156 134.878906 L 137.285156 125.585938 C 137.285156 124.183594 136.539062 122.890625 135.320312 122.203125 L 108.019531 106.605469 C 106.832031 105.917969 105.355469 105.917969 104.152344 106.605469 L 76.851562 122.203125 C 75.632812 122.890625 74.886719 124.183594 74.886719 125.585938 L 74.886719 156.785156 C 74.886719 158.1875 75.632812 159.480469 76.851562 160.167969 L 102.1875 174.65625 L 102.1875 209.117188 L 76.851562 223.605469 C 75.632812 224.289062 74.886719 225.585938 74.886719 226.984375 L 74.886719 258.1875 C 74.886719 259.585938 75.632812 260.882812 76.851562 261.566406 L 104.152344 277.167969 C 104.746094 277.519531 105.414062 277.6875 106.085938 277.6875 C 106.757812 277.6875 107.425781 277.519531 108.019531 277.167969 L 133.292969 262.726562 L 160.6875 279.847656 L 160.6875 289.386719 C 160.6875 290.789062 161.433594 292.082031 162.652344 292.769531 L 189.949219 308.367188 C 190.546875 308.71875 191.214844 308.886719 191.886719 308.886719 C 192.554688 308.886719 193.226562 308.71875 193.820312 308.367188 L 221.121094 292.769531 C 222.339844 292.082031 223.085938 290.789062 223.085938 289.386719 L 223.085938 279.847656 L 250.476562 262.726562 L 275.75 277.167969 C 276.34375 277.519531 277.015625 277.6875 277.6875 277.6875 C 278.355469 277.6875 279.027344 277.519531 279.621094 277.167969 L 306.921875 261.566406 C 308.140625 260.882812 308.886719 259.585938 308.886719 258.1875 L 308.886719 226.984375 C 308.886719 225.585938 308.140625 224.289062 306.921875 223.605469 L 281.585938 209.117188 L 281.585938 174.65625 L 306.921875 160.167969 " fill-opacity="1" fill-rule="nonzero"/></g></svg>