<svg xmlns="http://www.w3.org/2000/svg" xmlns:xlink="http://www.w3.org/1999/xlink" width="512" zoomAndPan="magnify" viewBox="0 0 384 383.999986" height="512" preserveAspectRatio="xMidYMid meet" version="1.0"><defs><clipPath id="62bd850f7b"><path d="M 163 63.171875 L 221 63.171875 L 221 133 L 163 133 Z M 163 63.171875 " clip-rule="nonzero"/></clipPath><clipPath id="d1f176e800"><path d="M 63.011719 163 L 152 163 L 152 221 L 63.011719 221 Z M 63.011719 163 " clip-rule="nonzero"/></clipPath><clipPath id="b765a13f4b"><path d="M 163 230 L 221 230 L 221 321.171875 L 163 321.171875 Z M 163 230 " clip-rule="nonzero"/></clipPath></defs><g clip-path="url(#62bd850f7b)"><path fill="#000000" d="M 189.703125 119.660156 L 189.703125 132.425781 C 190.519531 132.152344 191.0625 132.152344 191.875 132.152344 C 192.6875 132.152344 193.230469 132.152344 194.042969 132.425781 L 194.042969 119.660156 C 208.691406 118.574219 220.082031 106.351562 220.082031 91.414062 C 220.082031 75.933594 207.335938 63.171875 191.875 63.171875 C 176.414062 63.171875 163.667969 75.933594 163.667969 91.414062 C 163.667969 106.351562 175.058594 118.574219 189.703125 119.660156 Z M 191.875 67.515625 C 205.164062 67.515625 215.742188 78.378906 215.742188 91.414062 C 215.742188 104.722656 204.894531 115.316406 191.875 115.316406 C 178.855469 115.316406 168.007812 104.453125 168.007812 91.414062 C 168.007812 78.109375 178.585938 67.515625 191.875 67.515625 Z M 191.875 67.515625 " fill-opacity="1" fill-rule="nonzero"/></g><path fill="#000000" d="M 181.566406 105.808594 L 202.179688 105.808594 C 203.808594 105.808594 205.164062 104.453125 205.164062 102.820312 L 205.164062 98.75 C 205.164062 95.488281 203.265625 92.5 200.28125 91.414062 L 197.839844 90.328125 C 196.214844 91.957031 194.042969 92.773438 191.601562 92.773438 C 189.160156 92.773438 187.261719 91.957031 185.363281 90.328125 L 182.921875 91.414062 C 179.941406 92.773438 178.042969 95.761719 178.042969 98.75 L 178.042969 102.820312 C 178.585938 104.453125 179.941406 105.808594 181.566406 105.808594 Z M 181.566406 105.808594 " fill-opacity="1" fill-rule="nonzero"/><path fill="#000000" d="M 198.65625 81.910156 C 198.65625 82.425781 198.613281 82.941406 198.523438 83.445312 C 198.4375 83.953125 198.308594 84.445312 198.140625 84.925781 C 197.96875 85.402344 197.761719 85.855469 197.511719 86.285156 C 197.265625 86.714844 196.984375 87.113281 196.667969 87.480469 C 196.355469 87.84375 196.011719 88.171875 195.640625 88.457031 C 195.269531 88.746094 194.878906 88.988281 194.46875 89.1875 C 194.058594 89.382812 193.632812 89.535156 193.199219 89.632812 C 192.761719 89.734375 192.320312 89.785156 191.875 89.785156 C 191.429688 89.785156 190.988281 89.734375 190.550781 89.632812 C 190.113281 89.535156 189.691406 89.382812 189.28125 89.1875 C 188.867188 88.988281 188.476562 88.746094 188.105469 88.457031 C 187.738281 88.171875 187.394531 87.84375 187.078125 87.480469 C 186.765625 87.113281 186.484375 86.714844 186.238281 86.285156 C 185.988281 85.855469 185.78125 85.402344 185.609375 84.925781 C 185.4375 84.445312 185.3125 83.953125 185.222656 83.445312 C 185.136719 82.941406 185.09375 82.425781 185.09375 81.910156 C 185.09375 81.394531 185.136719 80.882812 185.222656 80.375 C 185.3125 79.867188 185.4375 79.375 185.609375 78.894531 C 185.78125 78.417969 185.988281 77.964844 186.238281 77.535156 C 186.484375 77.105469 186.765625 76.707031 187.078125 76.339844 C 187.394531 75.976562 187.738281 75.648438 188.105469 75.363281 C 188.476562 75.074219 188.867188 74.832031 189.28125 74.632812 C 189.691406 74.4375 190.113281 74.285156 190.550781 74.1875 C 190.988281 74.085938 191.429688 74.035156 191.875 74.035156 C 192.320312 74.035156 192.761719 74.085938 193.199219 74.1875 C 193.632812 74.285156 194.058594 74.4375 194.46875 74.632812 C 194.878906 74.832031 195.269531 75.074219 195.640625 75.363281 C 196.011719 75.648438 196.355469 75.976562 196.667969 76.339844 C 196.984375 76.707031 197.265625 77.105469 197.511719 77.535156 C 197.761719 77.964844 197.96875 78.417969 198.140625 78.894531 C 198.308594 79.375 198.4375 79.867188 198.523438 80.375 C 198.613281 80.882812 198.65625 81.394531 198.65625 81.910156 Z M 198.65625 81.910156 " fill-opacity="1" fill-rule="nonzero"/><path fill="#000000" d="M 120.8125 149.261719 C 127.863281 149.261719 134.101562 146.546875 139.253906 142.472656 L 157.429688 160.667969 L 160.683594 157.679688 L 142.511719 139.484375 C 146.851562 134.597656 149.289062 128.078125 149.289062 121.019531 C 149.289062 105.539062 136.542969 92.773438 121.082031 92.773438 C 105.621094 92.773438 92.601562 105.265625 92.601562 121.019531 C 92.601562 136.769531 105.078125 149.261719 120.8125 149.261719 Z M 120.8125 96.847656 C 134.101562 96.847656 144.679688 107.710938 144.679688 120.746094 C 144.679688 134.054688 133.832031 144.644531 120.8125 144.644531 C 107.519531 144.644531 96.941406 133.78125 96.941406 120.746094 C 96.671875 107.710938 107.519531 96.847656 120.8125 96.847656 Z M 120.8125 96.847656 " fill-opacity="1" fill-rule="nonzero"/><path fill="#000000" d="M 110.503906 135.140625 L 131.117188 135.140625 C 132.746094 135.140625 134.101562 133.78125 134.101562 132.152344 L 134.101562 128.078125 C 134.101562 124.820312 132.203125 121.832031 129.21875 120.746094 L 126.777344 119.929688 C 125.152344 121.5625 122.980469 122.375 120.539062 122.375 C 118.097656 122.375 116.199219 121.5625 114.300781 119.929688 L 111.859375 121.019531 C 108.878906 122.375 106.976562 125.363281 106.976562 128.351562 L 106.976562 132.425781 C 107.519531 134.054688 108.878906 135.140625 110.503906 135.140625 Z M 110.503906 135.140625 " fill-opacity="1" fill-rule="nonzero"/><path fill="#000000" d="M 120.8125 119.386719 C 124.609375 119.386719 127.59375 115.859375 127.59375 111.511719 C 127.59375 107.167969 124.609375 103.636719 120.8125 103.636719 C 117.015625 103.636719 114.03125 107.167969 114.03125 111.511719 C 114.03125 115.859375 117.015625 119.386719 120.8125 119.386719 Z M 120.8125 119.386719 " fill-opacity="1" fill-rule="nonzero"/><path fill="#000000" d="M 252.628906 135.140625 L 273.246094 135.140625 C 274.871094 135.140625 276.226562 133.78125 276.226562 132.152344 L 276.226562 128.078125 C 276.226562 124.820312 274.328125 121.832031 271.347656 120.746094 L 268.90625 119.660156 C 267.277344 121.289062 265.109375 122.105469 262.667969 122.105469 C 260.226562 122.105469 258.328125 121.289062 256.429688 119.660156 L 253.988281 120.746094 C 251.003906 122.105469 249.105469 125.089844 249.105469 128.078125 L 249.105469 132.152344 C 249.648438 134.054688 251.003906 135.140625 252.628906 135.140625 Z M 252.628906 135.140625 " fill-opacity="1" fill-rule="nonzero"/><path fill="#000000" d="M 262.9375 119.386719 C 266.734375 119.386719 269.71875 115.859375 269.71875 111.511719 C 269.71875 107.167969 266.734375 103.636719 262.9375 103.636719 C 259.140625 103.636719 256.15625 107.167969 256.15625 111.511719 C 256.15625 115.859375 259.410156 119.386719 262.9375 119.386719 Z M 262.9375 119.386719 " fill-opacity="1" fill-rule="nonzero"/><g clip-path="url(#d1f176e800)"><path fill="#000000" d="M 119.457031 194.34375 L 151.1875 194.34375 L 151.1875 190 L 119.457031 190 C 118.371094 175.332031 106.164062 163.925781 91.246094 163.925781 C 75.785156 163.925781 63.039062 176.691406 63.039062 192.171875 C 63.039062 207.652344 75.785156 220.414062 91.246094 220.414062 C 106.164062 220.414062 118.371094 209.007812 119.457031 194.34375 Z M 91.246094 216.070312 C 77.957031 216.070312 67.378906 205.207031 67.378906 192.171875 C 67.378906 179.136719 78.226562 168.273438 91.246094 168.273438 C 104.265625 168.273438 115.117188 179.136719 115.117188 192.171875 C 115.117188 205.207031 104.539062 216.070312 91.246094 216.070312 Z M 91.246094 216.070312 " fill-opacity="1" fill-rule="nonzero"/></g><path fill="#000000" d="M 99.65625 192.171875 L 97.214844 191.085938 C 95.585938 192.714844 93.417969 193.527344 90.976562 193.527344 C 88.535156 193.527344 86.636719 192.714844 84.738281 191.085938 L 82.839844 192.171875 C 79.855469 193.527344 77.957031 196.246094 77.957031 199.503906 L 77.957031 203.578125 C 77.957031 205.207031 79.3125 206.566406 80.941406 206.566406 L 101.554688 206.566406 C 103.179688 206.566406 104.539062 205.207031 104.539062 203.578125 L 104.539062 199.503906 C 104.539062 196.246094 102.636719 193.527344 99.65625 192.171875 Z M 99.65625 192.171875 " fill-opacity="1" fill-rule="nonzero"/><path fill="#000000" d="M 98.027344 182.667969 C 98.027344 183.183594 97.984375 183.695312 97.898438 184.203125 C 97.808594 184.710938 97.683594 185.203125 97.511719 185.679688 C 97.339844 186.15625 97.132812 186.613281 96.886719 187.042969 C 96.636719 187.472656 96.355469 187.871094 96.042969 188.234375 C 95.726562 188.601562 95.382812 188.925781 95.015625 189.214844 C 94.644531 189.5 94.253906 189.746094 93.839844 189.941406 C 93.429688 190.140625 93.007812 190.289062 92.570312 190.390625 C 92.132812 190.492188 91.691406 190.542969 91.246094 190.542969 C 90.800781 190.542969 90.359375 190.492188 89.925781 190.390625 C 89.488281 190.289062 89.0625 190.140625 88.652344 189.941406 C 88.242188 189.746094 87.851562 189.5 87.480469 189.214844 C 87.109375 188.925781 86.765625 188.601562 86.453125 188.234375 C 86.136719 187.871094 85.855469 187.472656 85.609375 187.042969 C 85.363281 186.613281 85.152344 186.15625 84.980469 185.679688 C 84.8125 185.203125 84.683594 184.710938 84.597656 184.203125 C 84.507812 183.695312 84.464844 183.183594 84.464844 182.667969 C 84.464844 182.148438 84.507812 181.636719 84.597656 181.128906 C 84.683594 180.621094 84.8125 180.128906 84.980469 179.652344 C 85.152344 179.175781 85.363281 178.71875 85.609375 178.289062 C 85.855469 177.859375 86.136719 177.460938 86.453125 177.097656 C 86.765625 176.730469 87.109375 176.40625 87.480469 176.117188 C 87.851562 175.832031 88.242188 175.585938 88.652344 175.390625 C 89.0625 175.191406 89.488281 175.042969 89.925781 174.941406 C 90.359375 174.839844 90.800781 174.789062 91.246094 174.789062 C 91.691406 174.789062 92.132812 174.839844 92.570312 174.941406 C 93.007812 175.042969 93.429688 175.191406 93.839844 175.390625 C 94.253906 175.585938 94.644531 175.832031 95.015625 176.117188 C 95.382812 176.40625 95.726562 176.730469 96.042969 177.097656 C 96.355469 177.460938 96.636719 177.859375 96.886719 178.289062 C 97.132812 178.71875 97.339844 179.175781 97.511719 179.652344 C 97.683594 180.128906 97.808594 180.621094 97.898438 181.128906 C 97.984375 181.636719 98.027344 182.148438 98.027344 182.667969 Z M 98.027344 182.667969 " fill-opacity="1" fill-rule="nonzero"/><g clip-path="url(#b765a13f4b)"><path fill="#000000" d="M 194.042969 264.683594 L 194.042969 230.191406 L 189.703125 230.191406 L 189.703125 264.683594 C 175.058594 265.769531 163.667969 277.988281 163.667969 292.925781 C 163.667969 308.40625 176.414062 321.171875 191.875 321.171875 C 207.335938 321.171875 220.082031 308.40625 220.082031 292.925781 C 220.082031 277.988281 208.691406 265.769531 194.042969 264.683594 Z M 191.875 316.824219 C 178.585938 316.824219 168.007812 305.960938 168.007812 292.925781 C 168.007812 279.621094 178.855469 269.027344 191.875 269.027344 C 205.164062 269.027344 215.742188 279.890625 215.742188 292.925781 C 215.742188 306.234375 205.164062 316.824219 191.875 316.824219 Z M 191.875 316.824219 " fill-opacity="1" fill-rule="nonzero"/></g><path fill="#000000" d="M 200.28125 292.925781 L 197.839844 291.839844 C 196.214844 293.46875 194.042969 294.285156 191.601562 294.285156 C 189.160156 294.285156 187.261719 293.46875 185.363281 291.839844 L 182.921875 292.925781 C 179.941406 294.285156 178.042969 297.273438 178.042969 300.257812 L 178.042969 304.332031 C 178.042969 305.960938 179.398438 307.320312 181.023438 307.320312 L 201.640625 307.320312 C 203.265625 307.320312 204.621094 305.960938 204.621094 304.332031 L 204.621094 300.257812 C 205.164062 297 203.265625 294.285156 200.28125 292.925781 Z M 200.28125 292.925781 " fill-opacity="1" fill-rule="nonzero"/><path fill="#000000" d="M 191.875 291.296875 C 195.671875 291.296875 198.65625 287.765625 198.65625 283.421875 C 198.65625 279.078125 195.671875 275.546875 191.875 275.546875 C 188.078125 275.546875 185.09375 279.078125 185.09375 283.421875 C 185.09375 287.765625 188.078125 291.296875 191.875 291.296875 Z M 191.875 291.296875 " fill-opacity="1" fill-rule="nonzero"/><path fill="#000000" d="M 129.21875 263.324219 L 126.777344 262.238281 C 125.152344 263.867188 122.980469 264.683594 120.539062 264.683594 C 118.097656 264.683594 116.199219 263.867188 114.300781 262.238281 L 111.859375 263.324219 C 108.878906 264.683594 106.976562 267.671875 106.976562 270.65625 L 106.976562 274.730469 C 106.976562 276.359375 108.335938 277.71875 109.960938 277.71875 L 130.574219 277.71875 C 132.203125 277.71875 133.558594 276.359375 133.558594 274.730469 L 133.558594 270.929688 C 134.101562 267.671875 132.203125 264.683594 129.21875 263.324219 Z M 129.21875 263.324219 " fill-opacity="1" fill-rule="nonzero"/><path fill="#000000" d="M 120.8125 261.695312 C 124.609375 261.695312 127.59375 258.164062 127.59375 253.820312 C 127.59375 249.472656 124.609375 245.945312 120.8125 245.945312 C 117.015625 245.945312 114.03125 249.472656 114.03125 253.820312 C 114.03125 258.164062 117.015625 261.695312 120.8125 261.695312 Z M 120.8125 261.695312 " fill-opacity="1" fill-rule="nonzero"/><path fill="#000000" d="M 262.9375 235.082031 C 255.886719 235.082031 249.648438 237.796875 244.492188 241.871094 L 232.558594 229.921875 C 232.015625 229.921875 231.472656 230.191406 230.933594 230.191406 L 226.59375 230.191406 L 241.238281 244.859375 C 236.898438 249.746094 234.457031 256.265625 234.457031 263.324219 C 234.457031 278.804688 247.207031 291.570312 262.667969 291.570312 C 278.125 291.570312 290.875 278.804688 290.875 263.324219 C 291.144531 247.84375 278.667969 235.082031 262.9375 235.082031 Z M 262.9375 287.496094 C 249.648438 287.496094 239.070312 276.632812 239.070312 263.597656 C 239.070312 250.289062 249.917969 239.699219 262.9375 239.699219 C 276.226562 239.699219 286.804688 250.5625 286.804688 263.597656 C 287.078125 276.632812 276.226562 287.496094 262.9375 287.496094 Z M 262.9375 287.496094 " fill-opacity="1" fill-rule="nonzero"/><path fill="#000000" d="M 271.347656 263.324219 L 268.90625 262.238281 C 267.277344 263.867188 265.109375 264.683594 262.667969 264.683594 C 260.226562 264.683594 258.328125 263.867188 256.429688 262.238281 L 253.988281 263.324219 C 251.003906 264.683594 249.105469 267.671875 249.105469 270.65625 L 249.105469 274.730469 C 249.105469 276.359375 250.460938 277.71875 252.089844 277.71875 L 273.246094 277.71875 C 274.871094 277.71875 276.226562 276.359375 276.226562 274.730469 L 276.226562 270.929688 C 276.226562 267.671875 274.328125 264.683594 271.347656 263.324219 Z M 271.347656 263.324219 " fill-opacity="1" fill-rule="nonzero"/><path fill="#000000" d="M 262.9375 261.695312 C 266.734375 261.695312 269.71875 258.164062 269.71875 253.820312 C 269.71875 249.472656 266.734375 245.945312 262.9375 245.945312 C 259.140625 245.945312 256.15625 249.472656 256.15625 253.820312 C 256.429688 258.164062 259.410156 261.695312 262.9375 261.695312 Z M 262.9375 261.695312 " fill-opacity="1" fill-rule="nonzero"/><path fill="#000000" d="M 292.503906 163.925781 C 277.585938 163.925781 265.378906 175.332031 264.292969 190 L 232.558594 190 L 232.558594 194.34375 L 264.566406 194.34375 C 265.648438 209.007812 277.855469 220.414062 292.773438 220.414062 C 308.234375 220.414062 320.980469 207.652344 320.980469 192.171875 C 320.980469 176.691406 307.960938 163.925781 292.503906 163.925781 Z M 292.503906 216.070312 C 279.210938 216.070312 268.632812 205.207031 268.632812 192.171875 C 268.632812 178.863281 279.484375 168.273438 292.503906 168.273438 C 305.792969 168.273438 316.371094 179.136719 316.371094 192.171875 C 316.371094 205.480469 305.792969 216.070312 292.503906 216.070312 Z M 292.503906 216.070312 " fill-opacity="1" fill-rule="nonzero"/><path fill="#000000" d="M 300.910156 192.171875 L 298.46875 191.085938 C 296.84375 192.714844 294.671875 193.527344 292.230469 193.527344 C 289.789062 193.527344 287.890625 192.714844 285.992188 191.085938 L 284.09375 192.171875 C 281.109375 193.527344 279.210938 196.515625 279.210938 199.503906 L 279.210938 203.578125 C 279.210938 205.207031 280.566406 206.566406 282.195312 206.566406 L 302.808594 206.566406 C 304.4375 206.566406 305.792969 205.207031 305.792969 203.578125 L 305.792969 199.503906 C 305.792969 196.246094 303.894531 193.527344 300.910156 192.171875 Z M 300.910156 192.171875 " fill-opacity="1" fill-rule="nonzero"/><path fill="#000000" d="M 292.503906 190.542969 C 296.300781 190.542969 299.28125 187.011719 299.28125 182.667969 C 299.28125 178.320312 296.300781 174.789062 292.503906 174.789062 C 288.703125 174.789062 285.722656 178.320312 285.722656 182.667969 C 285.722656 187.011719 288.703125 190.542969 292.503906 190.542969 Z M 292.503906 190.542969 " fill-opacity="1" fill-rule="nonzero"/><path fill="#000000" d="M 152.546875 230.191406 C 152.003906 230.191406 151.460938 230.191406 150.917969 229.921875 L 138.984375 241.871094 C 134.101562 237.523438 127.59375 235.082031 120.539062 235.082031 C 105.078125 235.082031 92.332031 247.84375 92.332031 263.324219 C 92.332031 278.804688 105.078125 291.570312 120.539062 291.570312 C 136 291.570312 149.019531 279.078125 149.019531 263.324219 C 149.019531 256.265625 146.308594 250.019531 142.238281 244.859375 L 157.15625 229.921875 L 152.546875 229.921875 Z M 120.8125 287.496094 C 107.519531 287.496094 96.941406 276.632812 96.941406 263.597656 C 96.941406 250.289062 107.792969 239.699219 120.8125 239.699219 C 134.101562 239.699219 144.679688 250.5625 144.679688 263.597656 C 144.679688 276.632812 133.832031 287.496094 120.8125 287.496094 Z M 120.8125 287.496094 " fill-opacity="1" fill-rule="nonzero"/><path fill="#000000" d="M 226.59375 160.398438 L 244.765625 142.199219 C 249.648438 146.546875 256.15625 148.992188 263.207031 148.992188 C 278.667969 148.992188 291.417969 136.226562 291.417969 120.746094 C 291.417969 105.265625 278.667969 92.773438 262.9375 92.773438 C 247.476562 92.773438 234.730469 105.539062 234.730469 121.019531 C 234.730469 128.078125 237.441406 134.597656 241.511719 139.484375 L 223.335938 157.679688 Z M 262.9375 96.847656 C 276.226562 96.847656 286.804688 107.710938 286.804688 120.746094 C 286.804688 134.054688 275.957031 144.644531 262.9375 144.644531 C 249.648438 144.644531 239.070312 133.78125 239.070312 120.746094 C 239.070312 107.710938 249.917969 96.847656 262.9375 96.847656 Z M 262.9375 96.847656 " fill-opacity="1" fill-rule="nonzero"/><path fill="#000000" d="M 232.832031 182.9375 C 235.8125 182.9375 237.171875 179.40625 235 177.507812 L 194.042969 139.757812 C 192.960938 138.671875 191.0625 138.671875 189.703125 139.757812 L 148.75 177.234375 C 146.578125 179.136719 147.933594 182.667969 150.917969 182.667969 L 157.96875 182.667969 L 157.96875 215.253906 L 152.816406 215.253906 C 150.648438 215.253906 148.75 217.15625 148.75 219.328125 C 148.75 221.5 150.648438 223.402344 152.816406 223.402344 L 231.203125 223.402344 C 233.375 223.402344 235.273438 221.5 235.273438 219.328125 C 235.273438 217.15625 233.375 215.253906 231.203125 215.253906 L 226.050781 215.253906 L 226.050781 182.667969 L 232.832031 182.667969 Z M 176.957031 208.464844 C 176.957031 210.636719 175.058594 212.539062 172.886719 212.539062 C 171.804688 212.539062 170.71875 211.996094 170.175781 211.453125 C 169.363281 210.636719 169.089844 209.824219 169.089844 208.738281 L 169.089844 187.28125 C 169.089844 185.109375 170.988281 183.210938 173.160156 183.210938 C 174.246094 183.210938 175.328125 183.753906 175.871094 184.296875 C 176.683594 185.109375 176.957031 185.925781 176.957031 187.011719 Z M 195.941406 208.464844 C 195.941406 210.636719 194.042969 212.539062 191.875 212.539062 C 190.789062 212.539062 189.703125 211.996094 189.164062 211.453125 C 188.347656 210.636719 188.078125 209.824219 188.078125 208.738281 L 188.078125 187.28125 C 188.078125 185.109375 189.976562 183.210938 192.144531 183.210938 C 193.230469 183.210938 194.316406 183.753906 194.859375 184.296875 C 195.671875 185.109375 195.941406 185.925781 195.941406 187.011719 Z M 197.570312 168.816406 C 196.757812 169.628906 195.941406 169.902344 194.859375 169.902344 L 188.890625 169.902344 C 186.722656 169.902344 184.824219 168 184.824219 165.828125 C 184.824219 164.742188 185.363281 163.65625 185.90625 163.113281 C 186.722656 162.296875 187.535156 162.027344 188.621094 162.027344 L 194.585938 162.027344 C 196.757812 162.027344 198.65625 163.925781 198.65625 166.101562 C 198.65625 166.914062 198.382812 168 197.570312 168.816406 Z M 214.65625 208.464844 C 214.65625 210.636719 212.757812 212.539062 210.589844 212.539062 C 209.503906 212.539062 208.417969 211.996094 207.878906 211.453125 C 207.0625 210.636719 206.792969 209.824219 206.792969 208.738281 L 206.792969 187.28125 C 206.792969 185.109375 208.691406 183.210938 210.859375 183.210938 C 211.945312 183.210938 213.03125 183.753906 213.574219 184.296875 C 214.386719 185.109375 214.65625 185.925781 214.65625 187.011719 Z M 214.65625 208.464844 " fill-opacity="1" fill-rule="nonzero"/></svg>