<svg xmlns="http://www.w3.org/2000/svg" xmlns:xlink="http://www.w3.org/1999/xlink" width="512" zoomAndPan="magnify" viewBox="0 0 384 383.999986" height="512" preserveAspectRatio="xMidYMid meet" version="1.0"><defs><clipPath id="e06914135b"><path d="M 61 183 L 323.597656 183 L 323.597656 324 L 61 324 Z M 61 183 " clip-rule="nonzero"/></clipPath><clipPath id="cd0e27d05d"><path d="M 61 61 L 323.597656 61 L 323.597656 178 L 61 178 Z M 61 61 " clip-rule="nonzero"/></clipPath></defs><path fill="#000000" d="M 170.425781 161.847656 C 170.714844 161.847656 171 161.820312 171.28125 161.765625 C 171.5625 161.710938 171.835938 161.625 172.101562 161.515625 C 172.367188 161.40625 172.617188 161.273438 172.855469 161.113281 C 173.097656 160.953125 173.316406 160.769531 173.519531 160.566406 C 173.722656 160.363281 173.90625 160.144531 174.0625 159.90625 C 174.222656 159.664062 174.359375 159.414062 174.46875 159.148438 C 174.578125 158.882812 174.660156 158.609375 174.71875 158.328125 C 174.773438 158.046875 174.800781 157.761719 174.800781 157.472656 L 174.800781 122.464844 C 174.800781 122.175781 174.773438 121.894531 174.71875 121.609375 C 174.660156 121.328125 174.578125 121.054688 174.46875 120.789062 C 174.359375 120.523438 174.222656 120.273438 174.0625 120.035156 C 173.90625 119.792969 173.722656 119.574219 173.519531 119.371094 C 173.316406 119.167969 173.097656 118.984375 172.855469 118.824219 C 172.617188 118.667969 172.367188 118.53125 172.101562 118.421875 C 171.835938 118.3125 171.5625 118.230469 171.28125 118.171875 C 171 118.117188 170.714844 118.089844 170.425781 118.089844 C 170.140625 118.089844 169.855469 118.117188 169.574219 118.171875 C 169.292969 118.230469 169.019531 118.3125 168.753906 118.421875 C 168.488281 118.53125 168.234375 118.667969 167.996094 118.824219 C 167.757812 118.984375 167.535156 119.167969 167.332031 119.371094 C 167.128906 119.574219 166.949219 119.792969 166.789062 120.035156 C 166.628906 120.273438 166.496094 120.523438 166.386719 120.789062 C 166.273438 121.054688 166.191406 121.328125 166.136719 121.609375 C 166.078125 121.894531 166.050781 122.175781 166.050781 122.464844 L 166.050781 144.34375 L 147.898438 120.144531 C 147.933594 120.183594 147.945312 120.226562 147.941406 120.277344 C 147.558594 119.597656 147.03125 119.0625 146.355469 118.671875 C 145.683594 118.28125 144.957031 118.085938 144.179688 118.089844 C 143.890625 118.089844 143.605469 118.117188 143.324219 118.171875 C 143.042969 118.230469 142.769531 118.3125 142.503906 118.421875 C 142.238281 118.53125 141.988281 118.667969 141.746094 118.824219 C 141.507812 118.984375 141.289062 119.167969 141.085938 119.371094 C 140.882812 119.574219 140.699219 119.792969 140.539062 120.035156 C 140.382812 120.273438 140.246094 120.523438 140.136719 120.789062 C 140.027344 121.054688 139.945312 121.328125 139.886719 121.609375 C 139.832031 121.894531 139.804688 122.175781 139.804688 122.464844 L 139.804688 157.472656 C 139.804688 157.761719 139.832031 158.046875 139.886719 158.328125 C 139.945312 158.609375 140.027344 158.882812 140.136719 159.148438 C 140.246094 159.414062 140.382812 159.664062 140.539062 159.90625 C 140.699219 160.144531 140.882812 160.363281 141.085938 160.566406 C 141.289062 160.769531 141.507812 160.953125 141.746094 161.113281 C 141.988281 161.273438 142.238281 161.40625 142.503906 161.515625 C 142.769531 161.625 143.042969 161.710938 143.324219 161.765625 C 143.605469 161.820312 143.890625 161.847656 144.179688 161.847656 C 144.464844 161.847656 144.75 161.820312 145.03125 161.765625 C 145.3125 161.710938 145.585938 161.625 145.851562 161.515625 C 146.117188 161.40625 146.371094 161.273438 146.609375 161.113281 C 146.847656 160.953125 147.070312 160.769531 147.273438 160.566406 C 147.476562 160.363281 147.65625 160.144531 147.816406 159.90625 C 147.976562 159.664062 148.109375 159.414062 148.21875 159.148438 C 148.328125 158.882812 148.414062 158.609375 148.46875 158.328125 C 148.523438 158.046875 148.554688 157.761719 148.554688 157.472656 L 148.554688 135.59375 L 166.707031 159.792969 C 166.671875 159.757812 166.65625 159.710938 166.664062 159.660156 C 167.046875 160.339844 167.574219 160.875 168.25 161.265625 C 168.921875 161.65625 169.648438 161.851562 170.425781 161.847656 Z M 170.425781 161.847656 " fill-opacity="1" fill-rule="nonzero"/><path fill="#000000" d="M 205.425781 126.839844 C 205.710938 126.839844 205.996094 126.8125 206.277344 126.757812 C 206.558594 126.699219 206.832031 126.617188 207.097656 126.507812 C 207.363281 126.398438 207.617188 126.261719 207.855469 126.101562 C 208.09375 125.945312 208.316406 125.761719 208.519531 125.558594 C 208.722656 125.355469 208.902344 125.132812 209.0625 124.894531 C 209.222656 124.65625 209.355469 124.40625 209.464844 124.140625 C 209.578125 123.875 209.660156 123.601562 209.714844 123.316406 C 209.769531 123.035156 209.800781 122.75 209.800781 122.464844 C 209.800781 122.175781 209.769531 121.894531 209.714844 121.609375 C 209.660156 121.328125 209.578125 121.054688 209.464844 120.789062 C 209.355469 120.523438 209.222656 120.273438 209.0625 120.035156 C 208.902344 119.792969 208.722656 119.574219 208.519531 119.371094 C 208.316406 119.167969 208.09375 118.984375 207.855469 118.824219 C 207.617188 118.667969 207.363281 118.53125 207.097656 118.421875 C 206.832031 118.3125 206.558594 118.230469 206.277344 118.171875 C 205.996094 118.117188 205.710938 118.089844 205.425781 118.089844 L 187.925781 118.089844 C 187.636719 118.089844 187.355469 118.117188 187.070312 118.171875 C 186.789062 118.230469 186.515625 118.3125 186.25 118.421875 C 185.984375 118.53125 185.734375 118.667969 185.496094 118.824219 C 185.257812 118.984375 185.035156 119.167969 184.832031 119.371094 C 184.628906 119.574219 184.449219 119.792969 184.289062 120.035156 C 184.128906 120.273438 183.992188 120.523438 183.882812 120.789062 C 183.773438 121.054688 183.691406 121.328125 183.636719 121.609375 C 183.578125 121.894531 183.550781 122.175781 183.550781 122.464844 L 183.550781 157.472656 C 183.550781 157.761719 183.578125 158.046875 183.636719 158.328125 C 183.691406 158.609375 183.773438 158.882812 183.882812 159.148438 C 183.992188 159.414062 184.128906 159.664062 184.289062 159.90625 C 184.449219 160.144531 184.628906 160.363281 184.832031 160.566406 C 185.035156 160.769531 185.257812 160.953125 185.496094 161.113281 C 185.734375 161.273438 185.984375 161.40625 186.25 161.515625 C 186.515625 161.625 186.789062 161.710938 187.070312 161.765625 C 187.355469 161.820312 187.636719 161.847656 187.925781 161.847656 C 188.210938 161.847656 188.496094 161.820312 188.777344 161.765625 C 189.0625 161.710938 189.335938 161.625 189.601562 161.515625 C 189.863281 161.40625 190.117188 161.273438 190.355469 161.113281 C 190.59375 160.953125 190.816406 160.769531 191.019531 160.566406 C 191.222656 160.363281 191.402344 160.144531 191.5625 159.90625 C 191.722656 159.664062 191.855469 159.414062 191.96875 159.148438 C 192.078125 158.882812 192.160156 158.609375 192.214844 158.328125 C 192.273438 158.046875 192.300781 157.761719 192.300781 157.472656 L 192.300781 144.34375 L 205.425781 144.34375 C 205.710938 144.34375 205.996094 144.316406 206.277344 144.261719 C 206.558594 144.203125 206.832031 144.121094 207.097656 144.011719 C 207.363281 143.902344 207.617188 143.765625 207.855469 143.609375 C 208.09375 143.449219 208.316406 143.265625 208.519531 143.0625 C 208.722656 142.859375 208.902344 142.640625 209.0625 142.398438 C 209.222656 142.160156 209.355469 141.910156 209.464844 141.644531 C 209.578125 141.378906 209.660156 141.105469 209.714844 140.824219 C 209.769531 140.539062 209.800781 140.257812 209.800781 139.96875 C 209.800781 139.683594 209.769531 139.398438 209.714844 139.117188 C 209.660156 138.832031 209.578125 138.558594 209.464844 138.292969 C 209.355469 138.027344 209.222656 137.777344 209.0625 137.539062 C 208.902344 137.300781 208.722656 137.078125 208.519531 136.875 C 208.316406 136.671875 208.09375 136.488281 207.855469 136.332031 C 207.617188 136.171875 207.363281 136.035156 207.097656 135.925781 C 206.832031 135.816406 206.558594 135.734375 206.277344 135.675781 C 205.996094 135.621094 205.710938 135.59375 205.425781 135.59375 L 192.300781 135.59375 L 192.300781 126.839844 Z M 205.425781 126.839844 " fill-opacity="1" fill-rule="nonzero"/><path fill="#000000" d="M 231.671875 161.847656 C 231.960938 161.847656 232.246094 161.820312 232.527344 161.765625 C 232.808594 161.710938 233.082031 161.625 233.347656 161.515625 C 233.613281 161.40625 233.863281 161.273438 234.101562 161.113281 C 234.34375 160.953125 234.5625 160.769531 234.765625 160.566406 C 234.96875 160.363281 235.152344 160.144531 235.308594 159.90625 C 235.46875 159.664062 235.605469 159.414062 235.714844 159.148438 C 235.824219 158.882812 235.90625 158.609375 235.964844 158.328125 C 236.019531 158.046875 236.046875 157.761719 236.046875 157.472656 L 236.046875 126.839844 L 240.421875 126.839844 C 240.710938 126.839844 240.996094 126.8125 241.277344 126.757812 C 241.558594 126.699219 241.832031 126.617188 242.097656 126.507812 C 242.363281 126.398438 242.613281 126.261719 242.851562 126.101562 C 243.089844 125.945312 243.3125 125.761719 243.515625 125.558594 C 243.71875 125.355469 243.898438 125.132812 244.058594 124.894531 C 244.21875 124.65625 244.355469 124.40625 244.464844 124.140625 C 244.574219 123.875 244.65625 123.601562 244.714844 123.316406 C 244.769531 123.035156 244.796875 122.75 244.796875 122.464844 C 244.796875 122.175781 244.769531 121.894531 244.714844 121.609375 C 244.65625 121.328125 244.574219 121.054688 244.464844 120.789062 C 244.355469 120.523438 244.21875 120.273438 244.058594 120.035156 C 243.898438 119.792969 243.71875 119.574219 243.515625 119.371094 C 243.3125 119.167969 243.089844 118.984375 242.851562 118.824219 C 242.613281 118.667969 242.363281 118.53125 242.097656 118.421875 C 241.832031 118.3125 241.558594 118.230469 241.277344 118.171875 C 240.996094 118.117188 240.710938 118.089844 240.421875 118.089844 L 222.921875 118.089844 C 222.636719 118.089844 222.351562 118.117188 222.070312 118.171875 C 221.789062 118.230469 221.515625 118.3125 221.25 118.421875 C 220.984375 118.53125 220.730469 118.667969 220.492188 118.824219 C 220.253906 118.984375 220.03125 119.167969 219.828125 119.371094 C 219.625 119.574219 219.445312 119.792969 219.285156 120.035156 C 219.125 120.273438 218.992188 120.523438 218.882812 120.789062 C 218.773438 121.054688 218.6875 121.328125 218.632812 121.609375 C 218.578125 121.894531 218.546875 122.175781 218.546875 122.464844 C 218.546875 122.75 218.578125 123.035156 218.632812 123.316406 C 218.6875 123.601562 218.773438 123.875 218.882812 124.140625 C 218.992188 124.40625 219.125 124.65625 219.285156 124.894531 C 219.445312 125.132812 219.625 125.355469 219.828125 125.558594 C 220.03125 125.761719 220.253906 125.945312 220.492188 126.101562 C 220.730469 126.261719 220.984375 126.398438 221.25 126.507812 C 221.515625 126.617188 221.789062 126.699219 222.070312 126.757812 C 222.351562 126.8125 222.636719 126.839844 222.921875 126.839844 L 227.296875 126.839844 L 227.296875 157.472656 C 227.296875 157.761719 227.328125 158.046875 227.382812 158.328125 C 227.4375 158.609375 227.519531 158.882812 227.632812 159.148438 C 227.742188 159.414062 227.875 159.664062 228.035156 159.90625 C 228.195312 160.144531 228.375 160.363281 228.578125 160.566406 C 228.78125 160.769531 229.003906 160.953125 229.242188 161.113281 C 229.480469 161.273438 229.734375 161.40625 230 161.515625 C 230.265625 161.625 230.539062 161.710938 230.820312 161.765625 C 231.101562 161.820312 231.386719 161.847656 231.671875 161.847656 Z M 231.671875 161.847656 " fill-opacity="1" fill-rule="nonzero"/><g clip-path="url(#e06914135b)"><path fill="#000000" d="M 284.167969 183.730469 L 100.429688 183.730469 C 78.722656 183.730469 61.058594 200.414062 61.058594 220.925781 L 61.058594 294.773438 C 61.058594 310.746094 74.792969 323.765625 91.679688 323.765625 L 94.175781 323.765625 C 107.300781 323.765625 118.71875 316.050781 123.019531 304.457031 L 141.554688 286.832031 L 243.046875 286.832031 L 261.578125 304.457031 C 265.878906 316.050781 277.324219 323.765625 290.425781 323.765625 L 292.917969 323.765625 C 309.800781 323.765625 323.542969 310.769531 323.542969 294.773438 L 323.542969 288.757812 C 323.542969 288.46875 323.515625 288.183594 323.457031 287.902344 C 323.402344 287.621094 323.320312 287.347656 323.210938 287.082031 C 323.097656 286.816406 322.964844 286.5625 322.804688 286.324219 C 322.644531 286.085938 322.464844 285.867188 322.261719 285.660156 C 322.058594 285.457031 321.835938 285.277344 321.597656 285.117188 C 321.359375 284.957031 321.105469 284.824219 320.84375 284.714844 C 320.578125 284.601562 320.304688 284.519531 320.019531 284.464844 C 319.738281 284.410156 319.453125 284.378906 319.167969 284.378906 C 318.878906 284.378906 318.597656 284.410156 318.3125 284.464844 C 318.03125 284.519531 317.757812 284.601562 317.492188 284.714844 C 317.226562 284.824219 316.976562 284.957031 316.738281 285.117188 C 316.5 285.277344 316.277344 285.457031 316.074219 285.660156 C 315.871094 285.867188 315.691406 286.085938 315.53125 286.324219 C 315.371094 286.5625 315.234375 286.816406 315.125 287.082031 C 315.015625 287.347656 314.933594 287.621094 314.878906 287.902344 C 314.820312 288.183594 314.792969 288.46875 314.792969 288.757812 L 314.792969 294.773438 C 314.792969 305.921875 304.976562 315.011719 292.917969 315.011719 L 290.425781 315.011719 C 280.871094 315.011719 272.269531 309.109375 269.519531 300.660156 C 269.289062 299.957031 268.910156 299.351562 268.378906 298.84375 L 247.816406 279.28125 C 246.96875 278.480469 245.960938 278.082031 244.796875 278.078125 L 139.804688 278.078125 C 138.640625 278.078125 137.632812 278.480469 136.789062 279.28125 L 116.230469 298.84375 C 115.691406 299.351562 115.308594 299.957031 115.082031 300.660156 C 112.324219 309.109375 103.710938 315.011719 94.175781 315.011719 L 91.679688 315.011719 C 79.652344 315.011719 69.808594 305.945312 69.808594 294.773438 L 69.808594 220.925781 C 69.808594 205.242188 83.542969 192.480469 100.429688 192.480469 L 284.167969 192.480469 C 301.050781 192.480469 314.792969 205.242188 314.792969 220.925781 L 314.792969 271.253906 C 314.792969 271.539062 314.820312 271.824219 314.878906 272.105469 C 314.933594 272.386719 315.015625 272.660156 315.125 272.925781 C 315.234375 273.191406 315.371094 273.445312 315.53125 273.683594 C 315.691406 273.921875 315.871094 274.144531 316.074219 274.347656 C 316.277344 274.550781 316.5 274.730469 316.738281 274.890625 C 316.976562 275.050781 317.226562 275.183594 317.492188 275.296875 C 317.757812 275.40625 318.03125 275.488281 318.3125 275.542969 C 318.597656 275.601562 318.878906 275.628906 319.167969 275.628906 C 319.453125 275.628906 319.738281 275.601562 320.019531 275.542969 C 320.304688 275.488281 320.578125 275.40625 320.84375 275.296875 C 321.105469 275.183594 321.359375 275.050781 321.597656 274.890625 C 321.835938 274.730469 322.058594 274.550781 322.261719 274.347656 C 322.464844 274.144531 322.644531 273.921875 322.804688 273.683594 C 322.964844 273.445312 323.097656 273.191406 323.210938 272.925781 C 323.320312 272.660156 323.402344 272.386719 323.457031 272.105469 C 323.515625 271.824219 323.542969 271.539062 323.542969 271.253906 L 323.542969 220.925781 C 323.542969 200.414062 305.878906 183.730469 284.167969 183.730469 Z M 284.167969 183.730469 " fill-opacity="1" fill-rule="nonzero"/></g><path fill="#000000" d="M 104.804688 262.5 L 122.304688 262.5 C 122.589844 262.5 122.875 262.472656 123.15625 262.414062 C 123.441406 262.359375 123.714844 262.277344 123.980469 262.167969 C 124.242188 262.058594 124.496094 261.921875 124.734375 261.761719 C 124.972656 261.601562 125.195312 261.421875 125.398438 261.21875 C 125.601562 261.015625 125.78125 260.792969 125.941406 260.554688 C 126.101562 260.316406 126.234375 260.0625 126.347656 259.796875 C 126.457031 259.53125 126.539062 259.257812 126.59375 258.976562 C 126.652344 258.695312 126.679688 258.410156 126.679688 258.125 L 126.679688 244.996094 L 139.804688 244.996094 C 140.089844 244.996094 140.375 244.96875 140.65625 244.910156 C 140.9375 244.855469 141.210938 244.773438 141.476562 244.664062 C 141.742188 244.550781 141.996094 244.417969 142.234375 244.257812 C 142.472656 244.097656 142.695312 243.917969 142.898438 243.714844 C 143.101562 243.511719 143.28125 243.289062 143.441406 243.050781 C 143.601562 242.8125 143.734375 242.558594 143.84375 242.292969 C 143.957031 242.027344 144.039062 241.753906 144.09375 241.472656 C 144.148438 241.191406 144.179688 240.90625 144.179688 240.621094 L 144.179688 223.113281 C 144.179688 222.828125 144.148438 222.542969 144.09375 222.261719 C 144.039062 221.980469 143.957031 221.707031 143.84375 221.441406 C 143.734375 221.175781 143.601562 220.921875 143.441406 220.683594 C 143.28125 220.445312 143.101562 220.222656 142.898438 220.019531 C 142.695312 219.816406 142.472656 219.636719 142.234375 219.476562 C 141.996094 219.316406 141.742188 219.183594 141.476562 219.070312 C 141.210938 218.960938 140.9375 218.878906 140.65625 218.824219 C 140.375 218.765625 140.089844 218.738281 139.804688 218.738281 L 126.679688 218.738281 L 126.679688 205.609375 C 126.679688 205.324219 126.652344 205.039062 126.59375 204.757812 C 126.539062 204.476562 126.457031 204.203125 126.347656 203.9375 C 126.234375 203.671875 126.101562 203.417969 125.941406 203.179688 C 125.78125 202.941406 125.601562 202.71875 125.398438 202.515625 C 125.195312 202.3125 124.972656 202.132812 124.734375 201.972656 C 124.496094 201.8125 124.242188 201.675781 123.980469 201.566406 C 123.714844 201.457031 123.441406 201.375 123.15625 201.320312 C 122.875 201.261719 122.589844 201.234375 122.304688 201.234375 L 104.804688 201.234375 C 104.519531 201.234375 104.234375 201.261719 103.953125 201.320312 C 103.671875 201.375 103.398438 201.457031 103.132812 201.566406 C 102.867188 201.675781 102.613281 201.8125 102.375 201.972656 C 102.136719 202.132812 101.914062 202.3125 101.710938 202.515625 C 101.507812 202.71875 101.328125 202.941406 101.167969 203.179688 C 101.007812 203.417969 100.875 203.671875 100.765625 203.9375 C 100.652344 204.203125 100.570312 204.476562 100.515625 204.757812 C 100.457031 205.039062 100.429688 205.324219 100.429688 205.609375 L 100.429688 218.738281 L 87.304688 218.738281 C 87.019531 218.738281 86.734375 218.765625 86.453125 218.824219 C 86.171875 218.878906 85.898438 218.960938 85.632812 219.070312 C 85.367188 219.183594 85.113281 219.316406 84.875 219.476562 C 84.636719 219.636719 84.417969 219.816406 84.214844 220.019531 C 84.011719 220.222656 83.828125 220.445312 83.667969 220.683594 C 83.507812 220.921875 83.375 221.175781 83.265625 221.441406 C 83.15625 221.707031 83.070312 221.980469 83.015625 222.261719 C 82.960938 222.542969 82.933594 222.828125 82.933594 223.113281 L 82.933594 240.621094 C 82.933594 240.90625 82.960938 241.191406 83.015625 241.472656 C 83.070312 241.753906 83.15625 242.027344 83.265625 242.292969 C 83.375 242.558594 83.507812 242.8125 83.667969 243.050781 C 83.828125 243.289062 84.011719 243.511719 84.214844 243.714844 C 84.417969 243.917969 84.636719 244.097656 84.875 244.257812 C 85.113281 244.417969 85.367188 244.550781 85.632812 244.664062 C 85.898438 244.773438 86.171875 244.855469 86.453125 244.910156 C 86.734375 244.96875 87.019531 244.996094 87.304688 244.996094 L 100.429688 244.996094 L 100.429688 258.125 C 100.429688 258.410156 100.457031 258.695312 100.515625 258.976562 C 100.570312 259.257812 100.652344 259.53125 100.765625 259.796875 C 100.875 260.0625 101.007812 260.316406 101.167969 260.554688 C 101.328125 260.792969 101.507812 261.015625 101.710938 261.21875 C 101.914062 261.421875 102.136719 261.601562 102.375 261.761719 C 102.613281 261.921875 102.867188 262.058594 103.132812 262.167969 C 103.398438 262.277344 103.671875 262.359375 103.953125 262.414062 C 104.234375 262.472656 104.519531 262.5 104.804688 262.5 Z M 91.679688 236.242188 L 91.679688 227.492188 L 104.804688 227.492188 C 105.09375 227.492188 105.378906 227.464844 105.660156 227.40625 C 105.941406 227.351562 106.214844 227.269531 106.480469 227.15625 C 106.746094 227.046875 106.996094 226.914062 107.234375 226.753906 C 107.476562 226.59375 107.695312 226.414062 107.898438 226.210938 C 108.101562 226.007812 108.285156 225.785156 108.441406 225.546875 C 108.601562 225.308594 108.738281 225.054688 108.847656 224.789062 C 108.957031 224.523438 109.039062 224.25 109.097656 223.96875 C 109.152344 223.6875 109.179688 223.402344 109.179688 223.113281 L 109.179688 209.988281 L 117.929688 209.988281 L 117.929688 223.113281 C 117.929688 223.402344 117.957031 223.6875 118.015625 223.96875 C 118.070312 224.25 118.152344 224.523438 118.261719 224.789062 C 118.371094 225.054688 118.507812 225.308594 118.667969 225.546875 C 118.828125 225.785156 119.007812 226.007812 119.210938 226.210938 C 119.414062 226.414062 119.636719 226.59375 119.875 226.753906 C 120.113281 226.914062 120.363281 227.046875 120.628906 227.15625 C 120.894531 227.269531 121.167969 227.351562 121.449219 227.40625 C 121.734375 227.464844 122.015625 227.492188 122.304688 227.492188 L 135.429688 227.492188 L 135.429688 236.242188 L 122.304688 236.242188 C 122.015625 236.242188 121.734375 236.269531 121.449219 236.328125 C 121.167969 236.382812 120.894531 236.464844 120.628906 236.578125 C 120.363281 236.6875 120.113281 236.820312 119.875 236.980469 C 119.636719 237.140625 119.414062 237.320312 119.210938 237.523438 C 119.007812 237.726562 118.828125 237.949219 118.667969 238.1875 C 118.507812 238.425781 118.371094 238.679688 118.261719 238.945312 C 118.152344 239.210938 118.070312 239.484375 118.015625 239.765625 C 117.957031 240.046875 117.929688 240.332031 117.929688 240.621094 L 117.929688 253.746094 L 109.179688 253.746094 L 109.179688 240.621094 C 109.179688 240.332031 109.152344 240.046875 109.097656 239.765625 C 109.039062 239.484375 108.957031 239.210938 108.847656 238.945312 C 108.738281 238.679688 108.601562 238.425781 108.441406 238.1875 C 108.285156 237.949219 108.101562 237.726562 107.898438 237.523438 C 107.695312 237.320312 107.476562 237.140625 107.234375 236.980469 C 106.996094 236.820312 106.746094 236.6875 106.480469 236.578125 C 106.214844 236.464844 105.941406 236.382812 105.660156 236.328125 C 105.378906 236.269531 105.09375 236.242188 104.804688 236.242188 Z M 91.679688 236.242188 " fill-opacity="1" fill-rule="nonzero"/><path fill="#000000" d="M 183.550781 236.242188 L 166.050781 236.242188 C 165.765625 236.242188 165.480469 236.269531 165.199219 236.328125 C 164.917969 236.382812 164.644531 236.464844 164.378906 236.578125 C 164.113281 236.6875 163.859375 236.820312 163.621094 236.980469 C 163.382812 237.140625 163.160156 237.320312 162.957031 237.523438 C 162.753906 237.726562 162.574219 237.949219 162.414062 238.1875 C 162.253906 238.425781 162.121094 238.679688 162.011719 238.945312 C 161.898438 239.210938 161.816406 239.484375 161.761719 239.765625 C 161.707031 240.046875 161.675781 240.332031 161.675781 240.621094 L 161.675781 258.125 C 161.675781 258.410156 161.707031 258.695312 161.761719 258.976562 C 161.816406 259.257812 161.898438 259.53125 162.011719 259.796875 C 162.121094 260.0625 162.253906 260.316406 162.414062 260.554688 C 162.574219 260.792969 162.753906 261.015625 162.957031 261.21875 C 163.160156 261.421875 163.382812 261.601562 163.621094 261.761719 C 163.859375 261.921875 164.113281 262.058594 164.378906 262.167969 C 164.644531 262.277344 164.917969 262.359375 165.199219 262.414062 C 165.480469 262.472656 165.765625 262.5 166.050781 262.5 L 183.550781 262.5 C 183.839844 262.5 184.121094 262.472656 184.40625 262.414062 C 184.6875 262.359375 184.960938 262.277344 185.226562 262.167969 C 185.492188 262.058594 185.742188 261.921875 185.980469 261.761719 C 186.21875 261.601562 186.441406 261.421875 186.644531 261.21875 C 186.847656 261.015625 187.027344 260.792969 187.1875 260.554688 C 187.347656 260.316406 187.484375 260.0625 187.59375 259.796875 C 187.703125 259.53125 187.785156 259.257812 187.839844 258.976562 C 187.898438 258.695312 187.925781 258.410156 187.925781 258.125 L 187.925781 240.621094 C 187.925781 240.332031 187.898438 240.046875 187.839844 239.765625 C 187.785156 239.484375 187.703125 239.210938 187.59375 238.945312 C 187.484375 238.679688 187.347656 238.425781 187.1875 238.1875 C 187.027344 237.949219 186.847656 237.726562 186.644531 237.523438 C 186.441406 237.320312 186.21875 237.140625 185.980469 236.980469 C 185.742188 236.820312 185.492188 236.6875 185.226562 236.578125 C 184.960938 236.464844 184.6875 236.382812 184.40625 236.328125 C 184.121094 236.269531 183.839844 236.242188 183.550781 236.242188 Z M 179.175781 253.746094 L 170.425781 253.746094 L 170.425781 244.996094 L 179.175781 244.996094 Z M 179.175781 253.746094 " fill-opacity="1" fill-rule="nonzero"/><path fill="#000000" d="M 218.546875 236.242188 L 201.050781 236.242188 C 200.761719 236.242188 200.476562 236.269531 200.195312 236.328125 C 199.914062 236.382812 199.640625 236.464844 199.375 236.578125 C 199.109375 236.6875 198.859375 236.820312 198.621094 236.980469 C 198.378906 237.140625 198.160156 237.320312 197.957031 237.523438 C 197.753906 237.726562 197.570312 237.949219 197.414062 238.1875 C 197.253906 238.425781 197.117188 238.679688 197.007812 238.945312 C 196.898438 239.210938 196.816406 239.484375 196.757812 239.765625 C 196.703125 240.046875 196.675781 240.332031 196.675781 240.621094 L 196.675781 258.125 C 196.675781 258.410156 196.703125 258.695312 196.757812 258.976562 C 196.816406 259.257812 196.898438 259.53125 197.007812 259.796875 C 197.117188 260.0625 197.253906 260.316406 197.414062 260.554688 C 197.570312 260.792969 197.753906 261.015625 197.957031 261.21875 C 198.160156 261.421875 198.378906 261.601562 198.621094 261.761719 C 198.859375 261.921875 199.109375 262.058594 199.375 262.167969 C 199.640625 262.277344 199.914062 262.359375 200.195312 262.414062 C 200.476562 262.472656 200.761719 262.5 201.050781 262.5 L 218.546875 262.5 C 218.835938 262.5 219.121094 262.472656 219.402344 262.414062 C 219.683594 262.359375 219.957031 262.277344 220.222656 262.167969 C 220.488281 262.058594 220.742188 261.921875 220.980469 261.761719 C 221.21875 261.601562 221.4375 261.421875 221.640625 261.21875 C 221.84375 261.015625 222.027344 260.792969 222.1875 260.554688 C 222.347656 260.316406 222.480469 260.0625 222.589844 259.796875 C 222.699219 259.53125 222.785156 259.257812 222.839844 258.976562 C 222.894531 258.695312 222.921875 258.410156 222.921875 258.125 L 222.921875 240.621094 C 222.921875 240.332031 222.894531 240.046875 222.839844 239.765625 C 222.785156 239.484375 222.699219 239.210938 222.589844 238.945312 C 222.480469 238.679688 222.347656 238.425781 222.1875 238.1875 C 222.027344 237.949219 221.84375 237.726562 221.640625 237.523438 C 221.4375 237.320312 221.21875 237.140625 220.980469 236.980469 C 220.742188 236.820312 220.488281 236.6875 220.222656 236.578125 C 219.957031 236.464844 219.683594 236.382812 219.402344 236.328125 C 219.121094 236.269531 218.835938 236.242188 218.546875 236.242188 Z M 214.175781 253.746094 L 205.425781 253.746094 L 205.425781 244.996094 L 214.175781 244.996094 Z M 214.175781 253.746094 " fill-opacity="1" fill-rule="nonzero"/><path fill="#000000" d="M 275.421875 209.988281 C 275.421875 209.125 275.335938 208.269531 275.167969 207.425781 C 275 206.578125 274.75 205.757812 274.421875 204.960938 C 274.089844 204.167969 273.6875 203.410156 273.207031 202.691406 C 272.730469 201.976562 272.1875 201.3125 271.578125 200.703125 C 270.96875 200.09375 270.304688 199.550781 269.585938 199.070312 C 268.871094 198.59375 268.113281 198.1875 267.320312 197.859375 C 266.523438 197.527344 265.703125 197.277344 264.855469 197.109375 C 264.011719 196.941406 263.15625 196.859375 262.296875 196.859375 C 261.433594 196.859375 260.582031 196.941406 259.734375 197.109375 C 258.890625 197.277344 258.070312 197.527344 257.273438 197.859375 C 256.476562 198.1875 255.722656 198.59375 255.003906 199.070312 C 254.289062 199.550781 253.625 200.09375 253.015625 200.703125 C 252.40625 201.3125 251.863281 201.976562 251.382812 202.691406 C 250.90625 203.410156 250.5 204.167969 250.171875 204.960938 C 249.839844 205.757812 249.59375 206.578125 249.425781 207.425781 C 249.257812 208.269531 249.171875 209.125 249.171875 209.988281 C 249.171875 210.847656 249.257812 211.703125 249.425781 212.546875 C 249.59375 213.394531 249.839844 214.214844 250.171875 215.011719 C 250.5 215.808594 250.90625 216.5625 251.382812 217.28125 C 251.863281 217.996094 252.40625 218.660156 253.015625 219.269531 C 253.625 219.878906 254.289062 220.421875 255.003906 220.902344 C 255.722656 221.382812 256.476562 221.785156 257.273438 222.117188 C 258.070312 222.445312 258.890625 222.695312 259.734375 222.863281 C 260.582031 223.03125 261.433594 223.113281 262.296875 223.113281 C 263.15625 223.113281 264.011719 223.03125 264.855469 222.863281 C 265.703125 222.695312 266.523438 222.445312 267.320312 222.117188 C 268.113281 221.785156 268.871094 221.382812 269.585938 220.902344 C 270.304688 220.421875 270.96875 219.878906 271.578125 219.269531 C 272.1875 218.660156 272.730469 217.996094 273.207031 217.28125 C 273.6875 216.5625 274.089844 215.808594 274.421875 215.011719 C 274.75 214.214844 275 213.394531 275.167969 212.546875 C 275.335938 211.703125 275.421875 210.847656 275.421875 209.988281 Z M 257.921875 209.988281 C 257.921875 209.699219 257.949219 209.414062 258.003906 209.132812 C 258.0625 208.851562 258.144531 208.578125 258.253906 208.3125 C 258.363281 208.046875 258.5 207.792969 258.660156 207.554688 C 258.816406 207.316406 259 207.09375 259.203125 206.890625 C 259.40625 206.6875 259.625 206.507812 259.867188 206.347656 C 260.105469 206.1875 260.355469 206.054688 260.621094 205.945312 C 260.886719 205.832031 261.160156 205.75 261.441406 205.695312 C 261.722656 205.636719 262.007812 205.609375 262.296875 205.609375 C 262.582031 205.609375 262.867188 205.636719 263.148438 205.695312 C 263.429688 205.75 263.703125 205.832031 263.96875 205.945312 C 264.234375 206.054688 264.488281 206.1875 264.726562 206.347656 C 264.964844 206.507812 265.1875 206.6875 265.390625 206.890625 C 265.59375 207.09375 265.773438 207.316406 265.933594 207.554688 C 266.09375 207.792969 266.226562 208.046875 266.335938 208.3125 C 266.449219 208.578125 266.53125 208.851562 266.585938 209.132812 C 266.644531 209.414062 266.671875 209.699219 266.671875 209.988281 C 266.671875 210.273438 266.644531 210.558594 266.585938 210.839844 C 266.53125 211.121094 266.449219 211.394531 266.335938 211.660156 C 266.226562 211.925781 266.09375 212.179688 265.933594 212.417969 C 265.773438 212.65625 265.59375 212.878906 265.390625 213.082031 C 265.1875 213.285156 264.964844 213.464844 264.726562 213.625 C 264.488281 213.785156 264.234375 213.917969 263.96875 214.03125 C 263.703125 214.140625 263.429688 214.222656 263.148438 214.277344 C 262.867188 214.335938 262.582031 214.363281 262.296875 214.363281 C 262.007812 214.363281 261.722656 214.335938 261.441406 214.277344 C 261.160156 214.222656 260.886719 214.140625 260.621094 214.03125 C 260.355469 213.917969 260.105469 213.785156 259.867188 213.625 C 259.625 213.464844 259.40625 213.285156 259.203125 213.082031 C 259 212.878906 258.816406 212.65625 258.660156 212.417969 C 258.5 212.179688 258.363281 211.925781 258.253906 211.660156 C 258.144531 211.394531 258.0625 211.121094 258.003906 210.839844 C 257.949219 210.558594 257.921875 210.273438 257.921875 209.988281 Z M 257.921875 209.988281 " fill-opacity="1" fill-rule="nonzero"/><path fill="#000000" d="M 301.667969 231.867188 C 301.667969 231.003906 301.585938 230.152344 301.417969 229.304688 C 301.25 228.460938 301 227.640625 300.667969 226.84375 C 300.339844 226.046875 299.9375 225.289062 299.457031 224.574219 C 298.976562 223.855469 298.433594 223.195312 297.824219 222.585938 C 297.214844 221.972656 296.550781 221.429688 295.835938 220.953125 C 295.121094 220.472656 294.363281 220.066406 293.566406 219.738281 C 292.769531 219.410156 291.949219 219.160156 291.105469 218.992188 C 290.261719 218.824219 289.40625 218.738281 288.542969 218.738281 C 287.683594 218.738281 286.828125 218.824219 285.984375 218.992188 C 285.140625 219.160156 284.316406 219.410156 283.523438 219.738281 C 282.726562 220.066406 281.96875 220.472656 281.253906 220.953125 C 280.535156 221.429688 279.875 221.972656 279.265625 222.585938 C 278.65625 223.195312 278.109375 223.855469 277.632812 224.574219 C 277.152344 225.289062 276.75 226.046875 276.417969 226.84375 C 276.089844 227.640625 275.839844 228.460938 275.671875 229.304688 C 275.503906 230.152344 275.421875 231.003906 275.421875 231.867188 C 275.421875 232.730469 275.503906 233.582031 275.671875 234.429688 C 275.839844 235.273438 276.089844 236.09375 276.417969 236.890625 C 276.75 237.6875 277.152344 238.445312 277.632812 239.160156 C 278.109375 239.878906 278.65625 240.539062 279.265625 241.148438 C 279.875 241.761719 280.535156 242.304688 281.253906 242.78125 C 281.96875 243.261719 282.726562 243.667969 283.523438 243.996094 C 284.316406 244.324219 285.140625 244.574219 285.984375 244.742188 C 286.828125 244.910156 287.683594 244.996094 288.542969 244.996094 C 289.40625 244.996094 290.261719 244.910156 291.105469 244.742188 C 291.949219 244.574219 292.769531 244.324219 293.566406 243.996094 C 294.363281 243.667969 295.121094 243.261719 295.835938 242.78125 C 296.550781 242.304688 297.214844 241.761719 297.824219 241.148438 C 298.433594 240.539062 298.976562 239.878906 299.457031 239.160156 C 299.9375 238.445312 300.339844 237.6875 300.667969 236.890625 C 301 236.09375 301.25 235.273438 301.417969 234.429688 C 301.585938 233.582031 301.667969 232.730469 301.667969 231.867188 Z M 284.167969 231.867188 C 284.167969 231.578125 284.199219 231.296875 284.253906 231.011719 C 284.308594 230.730469 284.394531 230.457031 284.503906 230.191406 C 284.613281 229.925781 284.746094 229.675781 284.90625 229.4375 C 285.066406 229.195312 285.246094 228.976562 285.453125 228.773438 C 285.652344 228.570312 285.875 228.386719 286.113281 228.230469 C 286.351562 228.070312 286.605469 227.933594 286.871094 227.824219 C 287.136719 227.714844 287.410156 227.632812 287.691406 227.574219 C 287.972656 227.519531 288.257812 227.492188 288.542969 227.492188 C 288.832031 227.492188 289.117188 227.519531 289.398438 227.574219 C 289.679688 227.632812 289.953125 227.714844 290.21875 227.824219 C 290.484375 227.933594 290.734375 228.070312 290.976562 228.230469 C 291.214844 228.386719 291.433594 228.570312 291.636719 228.773438 C 291.839844 228.976562 292.023438 229.195312 292.183594 229.4375 C 292.339844 229.675781 292.476562 229.925781 292.585938 230.191406 C 292.695312 230.457031 292.777344 230.730469 292.835938 231.011719 C 292.890625 231.296875 292.917969 231.578125 292.917969 231.867188 C 292.917969 232.15625 292.890625 232.4375 292.835938 232.722656 C 292.777344 233.003906 292.695312 233.277344 292.585938 233.542969 C 292.476562 233.808594 292.339844 234.058594 292.183594 234.296875 C 292.023438 234.539062 291.839844 234.757812 291.636719 234.960938 C 291.433594 235.164062 291.214844 235.347656 290.976562 235.503906 C 290.734375 235.664062 290.484375 235.800781 290.21875 235.910156 C 289.953125 236.019531 289.679688 236.101562 289.398438 236.160156 C 289.117188 236.214844 288.832031 236.242188 288.542969 236.242188 C 288.257812 236.242188 287.972656 236.214844 287.691406 236.160156 C 287.410156 236.101562 287.136719 236.019531 286.871094 235.910156 C 286.605469 235.800781 286.351562 235.664062 286.113281 235.503906 C 285.875 235.347656 285.652344 235.164062 285.453125 234.960938 C 285.246094 234.757812 285.066406 234.539062 284.90625 234.296875 C 284.746094 234.058594 284.613281 233.808594 284.503906 233.542969 C 284.394531 233.277344 284.308594 233.003906 284.253906 232.722656 C 284.199219 232.4375 284.167969 232.15625 284.167969 231.867188 Z M 284.167969 231.867188 " fill-opacity="1" fill-rule="nonzero"/><path fill="#000000" d="M 236.046875 244.996094 C 236.046875 245.859375 236.132812 246.710938 236.300781 247.554688 C 236.46875 248.402344 236.71875 249.222656 237.046875 250.019531 C 237.375 250.816406 237.78125 251.574219 238.257812 252.289062 C 238.738281 253.003906 239.28125 253.667969 239.890625 254.277344 C 240.5 254.886719 241.164062 255.433594 241.878906 255.910156 C 242.597656 256.390625 243.351562 256.792969 244.148438 257.125 C 244.945312 257.453125 245.765625 257.703125 246.613281 257.871094 C 247.457031 258.039062 248.308594 258.125 249.171875 258.125 C 250.035156 258.125 250.886719 258.039062 251.730469 257.871094 C 252.578125 257.703125 253.398438 257.453125 254.195312 257.125 C 254.992188 256.792969 255.746094 256.390625 256.464844 255.910156 C 257.179688 255.433594 257.84375 254.886719 258.453125 254.277344 C 259.0625 253.667969 259.605469 253.003906 260.085938 252.289062 C 260.5625 251.574219 260.96875 250.816406 261.296875 250.019531 C 261.625 249.222656 261.875 248.402344 262.042969 247.554688 C 262.210938 246.710938 262.296875 245.859375 262.296875 244.996094 C 262.296875 244.132812 262.210938 243.28125 262.042969 242.433594 C 261.875 241.589844 261.625 240.769531 261.296875 239.972656 C 260.96875 239.175781 260.5625 238.417969 260.085938 237.703125 C 259.605469 236.984375 259.0625 236.320312 258.453125 235.710938 C 257.84375 235.101562 257.179688 234.558594 256.464844 234.078125 C 255.746094 233.601562 254.992188 233.195312 254.195312 232.867188 C 253.398438 232.535156 252.578125 232.289062 251.730469 232.121094 C 250.886719 231.953125 250.035156 231.867188 249.171875 231.867188 C 248.308594 231.867188 247.457031 231.953125 246.613281 232.121094 C 245.765625 232.289062 244.945312 232.535156 244.148438 232.867188 C 243.351562 233.195312 242.597656 233.601562 241.878906 234.078125 C 241.164062 234.558594 240.5 235.101562 239.890625 235.710938 C 239.28125 236.320312 238.738281 236.984375 238.257812 237.703125 C 237.78125 238.417969 237.375 239.175781 237.046875 239.972656 C 236.71875 240.769531 236.46875 241.589844 236.300781 242.433594 C 236.132812 243.28125 236.046875 244.132812 236.046875 244.996094 Z M 253.546875 244.996094 C 253.546875 245.28125 253.519531 245.566406 253.460938 245.847656 C 253.40625 246.132812 253.324219 246.40625 253.214844 246.671875 C 253.105469 246.9375 252.96875 247.1875 252.808594 247.425781 C 252.648438 247.664062 252.46875 247.886719 252.265625 248.089844 C 252.0625 248.292969 251.839844 248.472656 251.601562 248.632812 C 251.363281 248.792969 251.113281 248.929688 250.847656 249.039062 C 250.582031 249.148438 250.308594 249.230469 250.023438 249.289062 C 249.742188 249.34375 249.460938 249.371094 249.171875 249.371094 C 248.882812 249.371094 248.601562 249.34375 248.320312 249.289062 C 248.035156 249.230469 247.761719 249.148438 247.496094 249.039062 C 247.230469 248.929688 246.980469 248.792969 246.742188 248.632812 C 246.503906 248.472656 246.28125 248.292969 246.078125 248.089844 C 245.875 247.886719 245.695312 247.664062 245.535156 247.425781 C 245.375 247.1875 245.238281 246.9375 245.128906 246.671875 C 245.019531 246.40625 244.9375 246.132812 244.882812 245.847656 C 244.824219 245.566406 244.796875 245.28125 244.796875 244.996094 C 244.796875 244.707031 244.824219 244.421875 244.882812 244.140625 C 244.9375 243.859375 245.019531 243.585938 245.128906 243.320312 C 245.238281 243.054688 245.375 242.804688 245.535156 242.5625 C 245.695312 242.324219 245.875 242.105469 246.078125 241.902344 C 246.28125 241.699219 246.503906 241.515625 246.742188 241.355469 C 246.980469 241.195312 247.230469 241.0625 247.496094 240.953125 C 247.761719 240.84375 248.035156 240.757812 248.320312 240.703125 C 248.601562 240.648438 248.882812 240.621094 249.171875 240.621094 C 249.460938 240.621094 249.742188 240.648438 250.023438 240.703125 C 250.308594 240.757812 250.582031 240.84375 250.847656 240.953125 C 251.113281 241.0625 251.363281 241.195312 251.601562 241.355469 C 251.839844 241.515625 252.0625 241.699219 252.265625 241.902344 C 252.46875 242.105469 252.648438 242.324219 252.808594 242.5625 C 252.96875 242.804688 253.105469 243.054688 253.214844 243.320312 C 253.324219 243.585938 253.40625 243.859375 253.460938 244.140625 C 253.519531 244.421875 253.546875 244.707031 253.546875 244.996094 Z M 253.546875 244.996094 " fill-opacity="1" fill-rule="nonzero"/><path fill="#000000" d="M 275.421875 280.003906 C 276.28125 280.003906 277.136719 279.921875 277.980469 279.753906 C 278.824219 279.582031 279.648438 279.335938 280.441406 279.003906 C 281.238281 278.675781 281.996094 278.269531 282.710938 277.792969 C 283.429688 277.3125 284.089844 276.769531 284.699219 276.160156 C 285.308594 275.550781 285.855469 274.886719 286.332031 274.167969 C 286.8125 273.453125 287.214844 272.695312 287.546875 271.898438 C 287.875 271.101562 288.125 270.28125 288.292969 269.4375 C 288.460938 268.589844 288.542969 267.738281 288.542969 266.875 C 288.542969 266.015625 288.460938 265.160156 288.292969 264.316406 C 288.125 263.46875 287.875 262.648438 287.546875 261.851562 C 287.214844 261.054688 286.8125 260.300781 286.332031 259.582031 C 285.855469 258.867188 285.308594 258.203125 284.699219 257.59375 C 284.089844 256.984375 283.429688 256.4375 282.710938 255.960938 C 281.996094 255.480469 281.238281 255.078125 280.441406 254.746094 C 279.648438 254.417969 278.824219 254.167969 277.980469 254 C 277.136719 253.832031 276.28125 253.746094 275.421875 253.746094 C 274.558594 253.746094 273.707031 253.832031 272.859375 254 C 272.015625 254.167969 271.195312 254.417969 270.398438 254.746094 C 269.601562 255.078125 268.84375 255.480469 268.128906 255.960938 C 267.414062 256.4375 266.75 256.984375 266.140625 257.59375 C 265.53125 258.203125 264.988281 258.867188 264.507812 259.582031 C 264.027344 260.300781 263.625 261.054688 263.296875 261.851562 C 262.964844 262.648438 262.714844 263.46875 262.546875 264.316406 C 262.378906 265.160156 262.296875 266.015625 262.296875 266.875 C 262.296875 267.738281 262.378906 268.589844 262.546875 269.4375 C 262.714844 270.28125 262.964844 271.101562 263.296875 271.898438 C 263.625 272.695312 264.027344 273.453125 264.507812 274.167969 C 264.988281 274.886719 265.53125 275.550781 266.140625 276.160156 C 266.75 276.769531 267.414062 277.3125 268.128906 277.792969 C 268.84375 278.269531 269.601562 278.675781 270.398438 279.003906 C 271.195312 279.335938 272.015625 279.582031 272.859375 279.753906 C 273.707031 279.921875 274.558594 280.003906 275.421875 280.003906 Z M 275.421875 262.5 C 275.707031 262.5 275.992188 262.527344 276.273438 262.582031 C 276.554688 262.640625 276.828125 262.722656 277.09375 262.832031 C 277.359375 262.941406 277.613281 263.078125 277.851562 263.238281 C 278.089844 263.398438 278.3125 263.578125 278.515625 263.78125 C 278.71875 263.984375 278.898438 264.207031 279.058594 264.445312 C 279.21875 264.683594 279.351562 264.9375 279.460938 265.203125 C 279.570312 265.464844 279.65625 265.742188 279.710938 266.023438 C 279.765625 266.304688 279.796875 266.589844 279.796875 266.875 C 279.796875 267.164062 279.765625 267.449219 279.710938 267.730469 C 279.65625 268.011719 279.570312 268.285156 279.460938 268.550781 C 279.351562 268.816406 279.21875 269.066406 279.058594 269.308594 C 278.898438 269.546875 278.71875 269.765625 278.515625 269.96875 C 278.3125 270.171875 278.089844 270.355469 277.851562 270.515625 C 277.613281 270.675781 277.359375 270.808594 277.09375 270.917969 C 276.828125 271.027344 276.554688 271.113281 276.273438 271.167969 C 275.992188 271.222656 275.707031 271.253906 275.421875 271.253906 C 275.132812 271.253906 274.847656 271.222656 274.566406 271.167969 C 274.285156 271.113281 274.011719 271.027344 273.746094 270.917969 C 273.480469 270.808594 273.230469 270.675781 272.988281 270.515625 C 272.75 270.355469 272.53125 270.171875 272.328125 269.96875 C 272.125 269.765625 271.941406 269.546875 271.78125 269.308594 C 271.625 269.066406 271.488281 268.816406 271.378906 268.550781 C 271.269531 268.285156 271.1875 268.011719 271.128906 267.730469 C 271.074219 267.449219 271.046875 267.164062 271.046875 266.875 C 271.046875 266.589844 271.074219 266.304688 271.128906 266.023438 C 271.1875 265.742188 271.269531 265.464844 271.378906 265.203125 C 271.488281 264.9375 271.625 264.683594 271.78125 264.445312 C 271.941406 264.207031 272.125 263.984375 272.328125 263.78125 C 272.53125 263.578125 272.75 263.398438 272.988281 263.238281 C 273.230469 263.078125 273.480469 262.941406 273.746094 262.832031 C 274.011719 262.722656 274.285156 262.640625 274.566406 262.582031 C 274.847656 262.527344 275.132812 262.5 275.421875 262.5 Z M 275.421875 262.5 " fill-opacity="1" fill-rule="nonzero"/><g clip-path="url(#cd0e27d05d)"><path fill="#000000" d="M 78.558594 153.097656 C 79.515625 153.09375 80.472656 153.011719 81.417969 152.851562 C 82.363281 152.691406 83.292969 152.453125 84.199219 152.140625 C 85.109375 151.824219 85.984375 151.441406 86.828125 150.980469 C 87.671875 150.523438 88.472656 150 89.230469 149.410156 C 89.988281 148.820312 90.695312 148.171875 91.347656 147.46875 C 91.996094 146.761719 92.585938 146.007812 93.113281 145.203125 C 93.640625 144.402344 94.101562 143.558594 94.488281 142.683594 C 94.878906 141.804688 95.191406 140.898438 95.433594 139.96875 L 122.304688 139.96875 L 122.304688 157.472656 L 113.554688 157.472656 C 112.347656 157.472656 111.316406 157.898438 110.460938 158.753906 L 104.882812 164.339844 C 104.382812 164.035156 103.871094 163.761719 103.34375 163.511719 C 102.820312 163.261719 102.28125 163.039062 101.734375 162.84375 C 101.183594 162.648438 100.628906 162.480469 100.0625 162.339844 C 99.496094 162.203125 98.925781 162.089844 98.347656 162.007812 C 97.769531 161.925781 97.191406 161.875 96.609375 161.851562 C 96.027344 161.828125 95.445312 161.835938 94.863281 161.871094 C 94.285156 161.90625 93.707031 161.972656 93.128906 162.066406 C 92.554688 162.160156 91.988281 162.28125 91.425781 162.433594 C 90.863281 162.585938 90.308594 162.765625 89.765625 162.972656 C 89.21875 163.179688 88.6875 163.414062 88.167969 163.675781 C 87.648438 163.9375 87.140625 164.222656 86.648438 164.535156 C 86.15625 164.847656 85.683594 165.183594 85.226562 165.546875 C 84.765625 165.90625 84.328125 166.289062 83.910156 166.691406 C 83.492188 167.097656 83.09375 167.523438 82.714844 167.96875 C 82.339844 168.410156 81.988281 168.875 81.65625 169.355469 C 81.328125 169.835938 81.023438 170.332031 80.746094 170.84375 C 80.605469 171.09375 80.492188 171.355469 80.40625 171.628906 C 80.316406 171.902344 80.257812 172.183594 80.226562 172.46875 C 80.191406 172.753906 80.1875 173.039062 80.210938 173.328125 C 80.238281 173.613281 80.289062 173.894531 80.367188 174.171875 C 80.445312 174.445312 80.550781 174.710938 80.683594 174.96875 C 80.816406 175.222656 80.96875 175.464844 81.148438 175.6875 C 81.328125 175.914062 81.527344 176.117188 81.746094 176.304688 C 81.964844 176.488281 82.199219 176.652344 82.453125 176.792969 C 82.703125 176.929688 82.964844 177.042969 83.238281 177.132812 C 83.511719 177.21875 83.792969 177.28125 84.078125 177.3125 C 84.363281 177.34375 84.648438 177.347656 84.933594 177.324219 C 85.222656 177.300781 85.503906 177.25 85.777344 177.171875 C 86.054688 177.09375 86.320312 176.988281 86.574219 176.855469 C 86.832031 176.722656 87.070312 176.570312 87.296875 176.390625 C 87.523438 176.210938 87.726562 176.011719 87.914062 175.792969 C 88.097656 175.574219 88.261719 175.339844 88.398438 175.085938 C 88.777344 174.40625 89.242188 173.785156 89.785156 173.226562 C 90.332031 172.667969 90.941406 172.191406 91.613281 171.796875 C 92.289062 171.402344 93 171.105469 93.753906 170.902344 C 94.507812 170.699219 95.277344 170.597656 96.054688 170.601562 C 97.289062 170.589844 98.46875 170.835938 99.597656 171.335938 C 100.722656 171.839844 101.695312 172.550781 102.515625 173.472656 C 102.703125 173.691406 102.910156 173.886719 103.136719 174.0625 C 103.363281 174.238281 103.605469 174.386719 103.863281 174.515625 C 104.121094 174.644531 104.386719 174.746094 104.664062 174.820312 C 104.941406 174.894531 105.222656 174.945312 105.511719 174.964844 C 105.796875 174.984375 106.082031 174.976562 106.367188 174.9375 C 106.652344 174.902344 106.929688 174.839844 107.203125 174.746094 C 107.472656 174.65625 107.734375 174.539062 107.984375 174.398438 C 108.234375 174.253906 108.464844 174.089844 108.683594 173.898438 C 109.367188 173.277344 109.800781 172.515625 109.988281 171.609375 L 115.363281 166.226562 L 122.304688 166.226562 L 122.304688 170.296875 C 122.320312 171.066406 122.480469 171.808594 122.792969 172.515625 C 123.019531 172.984375 123.320312 173.398438 123.699219 173.757812 C 124.074219 174.117188 124.503906 174.402344 124.980469 174.609375 C 125.457031 174.816406 125.957031 174.9375 126.476562 174.964844 C 126.996094 174.996094 127.507812 174.933594 128.003906 174.78125 C 128.503906 174.628906 128.957031 174.394531 129.371094 174.078125 C 129.785156 173.761719 130.132812 173.382812 130.414062 172.945312 C 130.691406 172.503906 130.886719 172.03125 131 171.519531 C 131.109375 171.011719 131.125 170.5 131.054688 169.984375 L 131.054688 109.644531 C 131.054688 108.488281 131.207031 107.355469 131.511719 106.238281 C 131.816406 105.125 132.261719 104.074219 132.851562 103.078125 C 133.4375 102.082031 134.144531 101.183594 134.96875 100.378906 C 135.796875 99.574219 136.714844 98.890625 137.726562 98.332031 L 186.039062 71.558594 C 186.996094 71.035156 188.003906 70.636719 189.0625 70.367188 C 190.121094 70.09375 191.195312 69.960938 192.289062 69.960938 C 193.382812 69.960938 194.457031 70.09375 195.515625 70.367188 C 196.574219 70.636719 197.582031 71.035156 198.539062 71.558594 L 246.875 98.363281 C 247.882812 98.921875 248.796875 99.605469 249.621094 100.40625 C 250.449219 101.210938 251.152344 102.105469 251.738281 103.097656 C 252.324219 104.089844 252.773438 105.140625 253.078125 106.25 C 253.386719 107.359375 253.542969 108.492188 253.546875 109.644531 L 253.546875 169.984375 C 253.472656 170.5 253.492188 171.011719 253.601562 171.519531 C 253.710938 172.03125 253.90625 172.503906 254.1875 172.945312 C 254.464844 173.382812 254.8125 173.761719 255.226562 174.078125 C 255.640625 174.394531 256.097656 174.628906 256.597656 174.78125 C 257.09375 174.933594 257.605469 174.996094 258.125 174.964844 C 258.644531 174.9375 259.144531 174.816406 259.621094 174.609375 C 260.097656 174.402344 260.527344 174.117188 260.902344 173.757812 C 261.277344 173.398438 261.582031 172.984375 261.808594 172.515625 C 262.121094 171.808594 262.28125 171.070312 262.296875 170.296875 L 262.296875 166.226562 L 269.234375 166.226562 L 274.605469 171.601562 C 274.792969 172.507812 275.230469 173.273438 275.914062 173.898438 C 276.128906 174.089844 276.363281 174.253906 276.613281 174.398438 C 276.859375 174.539062 277.121094 174.65625 277.394531 174.75 C 277.667969 174.839844 277.945312 174.90625 278.230469 174.941406 C 278.515625 174.976562 278.800781 174.984375 279.085938 174.964844 C 279.375 174.945312 279.65625 174.898438 279.933594 174.824219 C 280.210938 174.75 280.476562 174.648438 280.734375 174.519531 C 280.992188 174.390625 281.234375 174.238281 281.460938 174.0625 C 281.691406 173.886719 281.898438 173.691406 282.085938 173.472656 C 282.902344 172.550781 283.875 171.835938 285.003906 171.335938 C 286.132812 170.835938 287.3125 170.589844 288.542969 170.601562 C 289.324219 170.597656 290.09375 170.699219 290.84375 170.902344 C 291.597656 171.105469 292.3125 171.402344 292.984375 171.796875 C 293.660156 172.191406 294.269531 172.667969 294.8125 173.226562 C 295.359375 173.785156 295.820312 174.40625 296.199219 175.085938 C 296.339844 175.339844 296.503906 175.574219 296.6875 175.792969 C 296.875 176.015625 297.078125 176.214844 297.304688 176.394531 C 297.527344 176.570312 297.769531 176.726562 298.023438 176.859375 C 298.28125 176.992188 298.546875 177.097656 298.820312 177.175781 C 299.097656 177.253906 299.378906 177.308594 299.667969 177.332031 C 299.953125 177.355469 300.238281 177.351562 300.523438 177.316406 C 300.808594 177.285156 301.089844 177.226562 301.363281 177.136719 C 301.636719 177.050781 301.902344 176.9375 302.152344 176.796875 C 302.402344 176.65625 302.640625 176.496094 302.859375 176.308594 C 303.078125 176.125 303.277344 175.917969 303.457031 175.691406 C 303.636719 175.46875 303.789062 175.226562 303.921875 174.972656 C 304.054688 174.714844 304.160156 174.449219 304.238281 174.171875 C 304.316406 173.898438 304.367188 173.613281 304.390625 173.328125 C 304.414062 173.042969 304.410156 172.753906 304.378906 172.46875 C 304.34375 172.183594 304.285156 171.902344 304.199219 171.628906 C 304.109375 171.355469 303.996094 171.09375 303.855469 170.84375 C 303.578125 170.332031 303.273438 169.835938 302.941406 169.355469 C 302.613281 168.878906 302.261719 168.414062 301.882812 167.972656 C 301.507812 167.527344 301.113281 167.101562 300.691406 166.699219 C 300.273438 166.292969 299.835938 165.914062 299.378906 165.554688 C 298.921875 165.191406 298.445312 164.855469 297.957031 164.546875 C 297.464844 164.234375 296.957031 163.945312 296.4375 163.6875 C 295.917969 163.425781 295.386719 163.191406 294.84375 162.984375 C 294.300781 162.777344 293.746094 162.597656 293.183594 162.445312 C 292.625 162.292969 292.054688 162.171875 291.480469 162.078125 C 290.90625 161.984375 290.328125 161.917969 289.75 161.882812 C 289.167969 161.847656 288.585938 161.839844 288.003906 161.863281 C 287.425781 161.882812 286.84375 161.9375 286.269531 162.019531 C 285.691406 162.097656 285.121094 162.207031 284.558594 162.347656 C 283.992188 162.484375 283.4375 162.652344 282.886719 162.847656 C 282.339844 163.042969 281.800781 163.265625 281.277344 163.515625 C 280.75 163.761719 280.238281 164.039062 279.742188 164.339844 L 274.164062 158.753906 C 273.300781 157.894531 272.261719 157.464844 271.046875 157.472656 L 262.296875 157.472656 L 262.296875 139.96875 L 289.167969 139.96875 C 289.34375 140.648438 289.558594 141.316406 289.816406 141.972656 C 290.070312 142.628906 290.367188 143.265625 290.699219 143.882812 C 291.03125 144.503906 291.402344 145.101562 291.804688 145.675781 C 292.210938 146.25 292.648438 146.796875 293.121094 147.320312 C 293.589844 147.84375 294.09375 148.335938 294.621094 148.796875 C 295.152344 149.257812 295.707031 149.6875 296.289062 150.082031 C 296.871094 150.476562 297.476562 150.832031 298.101562 151.15625 C 298.726562 151.476562 299.367188 151.761719 300.027344 152.003906 C 300.6875 152.25 301.355469 152.453125 302.039062 152.617188 C 302.722656 152.78125 303.414062 152.902344 304.113281 152.984375 C 304.8125 153.0625 305.511719 153.101562 306.214844 153.097656 C 306.917969 153.09375 307.617188 153.046875 308.316406 152.957031 C 309.011719 152.871094 309.703125 152.738281 310.386719 152.566406 C 311.066406 152.394531 311.734375 152.183594 312.390625 151.929688 C 313.046875 151.679688 313.6875 151.386719 314.308594 151.058594 C 314.929688 150.730469 315.527344 150.363281 316.105469 149.960938 C 316.683594 149.558594 317.234375 149.125 317.757812 148.65625 C 318.28125 148.191406 318.777344 147.691406 319.242188 147.164062 C 319.707031 146.636719 320.136719 146.082031 320.535156 145.503906 C 320.933594 144.921875 321.296875 144.324219 321.621094 143.699219 C 321.945312 143.074219 322.234375 142.433594 322.480469 141.777344 C 322.730469 141.121094 322.9375 140.449219 323.105469 139.765625 C 323.273438 139.082031 323.398438 138.394531 323.484375 137.695312 C 323.566406 136.996094 323.609375 136.296875 323.609375 135.59375 C 323.609375 134.890625 323.566406 134.1875 323.484375 133.492188 C 323.398438 132.792969 323.273438 132.101562 323.105469 131.417969 C 322.9375 130.738281 322.730469 130.066406 322.480469 129.410156 C 322.234375 128.75 321.945312 128.109375 321.621094 127.488281 C 321.296875 126.863281 320.933594 126.261719 320.535156 125.683594 C 320.136719 125.101562 319.707031 124.550781 319.242188 124.019531 C 318.777344 123.492188 318.28125 122.996094 317.757812 122.527344 C 317.234375 122.058594 316.683594 121.625 316.105469 121.222656 C 315.527344 120.820312 314.929688 120.457031 314.308594 120.128906 C 313.6875 119.796875 313.046875 119.507812 312.390625 119.253906 C 311.734375 119.003906 311.066406 118.789062 310.386719 118.617188 C 309.703125 118.445312 309.011719 118.316406 308.316406 118.226562 C 307.617188 118.140625 306.917969 118.09375 306.214844 118.089844 C 305.511719 118.085938 304.8125 118.121094 304.113281 118.203125 C 303.414062 118.28125 302.722656 118.40625 302.039062 118.570312 C 301.355469 118.730469 300.6875 118.9375 300.027344 119.179688 C 299.367188 119.425781 298.726562 119.707031 298.101562 120.03125 C 297.476562 120.351562 296.871094 120.710938 296.289062 121.105469 C 295.707031 121.5 295.152344 121.929688 294.621094 122.390625 C 294.09375 122.851562 293.589844 123.34375 293.121094 123.867188 C 292.648438 124.386719 292.210938 124.9375 291.804688 125.511719 C 291.402344 126.085938 291.03125 126.683594 290.699219 127.300781 C 290.367188 127.921875 290.070312 128.558594 289.816406 129.214844 C 289.558594 129.867188 289.34375 130.535156 289.167969 131.214844 L 262.296875 131.214844 L 262.296875 109.644531 C 262.296875 109.539062 262.296875 109.441406 262.296875 109.335938 L 271.046875 109.335938 C 272.253906 109.335938 273.285156 108.910156 274.140625 108.054688 L 279.714844 102.480469 C 282.429688 104.117188 285.375 104.945312 288.542969 104.960938 C 289.117188 104.960938 289.691406 104.933594 290.261719 104.875 C 290.832031 104.820312 291.394531 104.734375 291.957031 104.625 C 292.519531 104.511719 293.074219 104.371094 293.625 104.207031 C 294.171875 104.039062 294.710938 103.847656 295.242188 103.628906 C 295.769531 103.410156 296.289062 103.164062 296.792969 102.894531 C 297.300781 102.621094 297.789062 102.328125 298.265625 102.011719 C 298.742188 101.691406 299.203125 101.351562 299.644531 100.988281 C 300.089844 100.625 300.511719 100.238281 300.917969 99.832031 C 301.324219 99.429688 301.707031 99.003906 302.070312 98.558594 C 302.433594 98.117188 302.777344 97.65625 303.09375 97.179688 C 303.414062 96.703125 303.707031 96.214844 303.976562 95.707031 C 304.246094 95.203125 304.492188 94.683594 304.710938 94.15625 C 304.929688 93.625 305.125 93.085938 305.289062 92.535156 C 305.457031 91.988281 305.59375 91.433594 305.707031 90.871094 C 305.820312 90.308594 305.902344 89.742188 305.960938 89.171875 C 306.015625 88.601562 306.042969 88.027344 306.042969 87.457031 C 306.042969 86.882812 306.015625 86.3125 305.960938 85.738281 C 305.902344 85.167969 305.820312 84.601562 305.707031 84.039062 C 305.59375 83.480469 305.457031 82.921875 305.289062 82.375 C 305.125 81.824219 304.929688 81.285156 304.710938 80.757812 C 304.492188 80.226562 304.246094 79.710938 303.976562 79.203125 C 303.707031 78.699219 303.414062 78.207031 303.09375 77.730469 C 302.777344 77.253906 302.433594 76.792969 302.070312 76.351562 C 301.707031 75.90625 301.324219 75.484375 300.917969 75.078125 C 300.511719 74.671875 300.089844 74.289062 299.644531 73.925781 C 299.203125 73.5625 298.742188 73.21875 298.265625 72.902344 C 297.789062 72.582031 297.300781 72.289062 296.792969 72.019531 C 296.289062 71.746094 295.769531 71.503906 295.242188 71.285156 C 294.710938 71.0625 294.171875 70.871094 293.625 70.707031 C 293.074219 70.539062 292.519531 70.398438 291.957031 70.289062 C 291.394531 70.175781 290.832031 70.09375 290.261719 70.035156 C 289.691406 69.980469 289.117188 69.953125 288.542969 69.953125 C 287.972656 69.953125 287.398438 69.980469 286.828125 70.035156 C 286.257812 70.09375 285.691406 70.175781 285.128906 70.289062 C 284.570312 70.398438 284.011719 70.539062 283.464844 70.707031 C 282.917969 70.871094 282.378906 71.0625 281.847656 71.285156 C 281.320312 71.503906 280.800781 71.746094 280.296875 72.019531 C 279.789062 72.289062 279.300781 72.582031 278.824219 72.902344 C 278.347656 73.21875 277.886719 73.5625 277.445312 73.925781 C 277 74.289062 276.578125 74.671875 276.171875 75.078125 C 275.765625 75.484375 275.382812 75.90625 275.019531 76.351562 C 274.652344 76.792969 274.3125 77.253906 273.996094 77.730469 C 273.675781 78.207031 273.382812 78.699219 273.113281 79.203125 C 272.839844 79.710938 272.597656 80.226562 272.378906 80.757812 C 272.160156 81.285156 271.964844 81.824219 271.800781 82.375 C 271.632812 82.921875 271.492188 83.480469 271.382812 84.039062 C 271.269531 84.601562 271.1875 85.167969 271.128906 85.738281 C 271.074219 86.3125 271.046875 86.882812 271.046875 87.457031 C 271.0625 90.628906 271.886719 93.574219 273.523438 96.289062 L 269.234375 100.585938 L 260.273438 100.585938 C 259.3125 98.488281 258.046875 96.59375 256.480469 94.898438 C 254.917969 93.203125 253.128906 91.796875 251.113281 90.671875 L 202.757812 63.867188 C 201.152344 62.984375 199.464844 62.316406 197.691406 61.859375 C 195.921875 61.40625 194.121094 61.175781 192.289062 61.175781 C 190.460938 61.175781 188.660156 61.40625 186.886719 61.859375 C 185.113281 62.316406 183.425781 62.984375 181.824219 63.867188 L 133.480469 90.671875 C 131.46875 91.792969 129.679688 93.203125 128.113281 94.898438 C 126.550781 96.589844 125.289062 98.488281 124.328125 100.585938 L 115.363281 100.585938 L 111.078125 96.289062 C 112.714844 93.574219 113.539062 90.628906 113.554688 87.457031 C 113.554688 86.882812 113.527344 86.3125 113.472656 85.738281 C 113.414062 85.167969 113.332031 84.601562 113.21875 84.039062 C 113.105469 83.480469 112.96875 82.921875 112.800781 82.375 C 112.636719 81.824219 112.441406 81.285156 112.222656 80.757812 C 112.003906 80.226562 111.757812 79.710938 111.488281 79.203125 C 111.21875 78.699219 110.925781 78.207031 110.605469 77.730469 C 110.289062 77.253906 109.945312 76.792969 109.582031 76.351562 C 109.21875 75.90625 108.835938 75.484375 108.429688 75.078125 C 108.023438 74.671875 107.601562 74.289062 107.15625 73.925781 C 106.714844 73.5625 106.253906 73.21875 105.777344 72.902344 C 105.300781 72.582031 104.808594 72.289062 104.304688 72.019531 C 103.800781 71.746094 103.28125 71.503906 102.753906 71.285156 C 102.222656 71.0625 101.683594 70.871094 101.136719 70.707031 C 100.585938 70.539062 100.03125 70.398438 99.46875 70.289062 C 98.90625 70.175781 98.339844 70.09375 97.769531 70.035156 C 97.199219 69.980469 96.628906 69.953125 96.054688 69.953125 C 95.484375 69.953125 94.910156 69.980469 94.339844 70.035156 C 93.769531 70.09375 93.203125 70.175781 92.640625 70.289062 C 92.078125 70.398438 91.523438 70.539062 90.976562 70.707031 C 90.429688 70.871094 89.890625 71.0625 89.359375 71.285156 C 88.828125 71.503906 88.3125 71.746094 87.808594 72.019531 C 87.300781 72.289062 86.8125 72.582031 86.335938 72.902344 C 85.859375 73.21875 85.398438 73.5625 84.953125 73.925781 C 84.511719 74.289062 84.085938 74.671875 83.683594 75.078125 C 83.277344 75.484375 82.894531 75.90625 82.527344 76.351562 C 82.164062 76.792969 81.824219 77.253906 81.507812 77.730469 C 81.1875 78.207031 80.894531 78.699219 80.625 79.203125 C 80.351562 79.710938 80.109375 80.226562 79.890625 80.757812 C 79.667969 81.285156 79.476562 81.824219 79.3125 82.375 C 79.144531 82.921875 79.003906 83.480469 78.894531 84.039062 C 78.78125 84.601562 78.699219 85.167969 78.640625 85.738281 C 78.585938 86.3125 78.558594 86.882812 78.558594 87.457031 C 78.558594 88.027344 78.585938 88.601562 78.640625 89.171875 C 78.699219 89.742188 78.78125 90.308594 78.894531 90.871094 C 79.003906 91.433594 79.144531 91.988281 79.3125 92.535156 C 79.476562 93.085938 79.667969 93.625 79.890625 94.15625 C 80.109375 94.683594 80.351562 95.203125 80.625 95.707031 C 80.894531 96.214844 81.1875 96.703125 81.507812 97.179688 C 81.824219 97.65625 82.164062 98.117188 82.527344 98.558594 C 82.894531 99.003906 83.277344 99.429688 83.683594 99.832031 C 84.085938 100.238281 84.511719 100.625 84.953125 100.988281 C 85.398438 101.351562 85.859375 101.691406 86.335938 102.011719 C 86.8125 102.328125 87.300781 102.621094 87.808594 102.894531 C 88.3125 103.164062 88.828125 103.410156 89.359375 103.628906 C 89.890625 103.847656 90.429688 104.039062 90.976562 104.207031 C 91.523438 104.371094 92.078125 104.511719 92.640625 104.625 C 93.203125 104.734375 93.769531 104.820312 94.339844 104.875 C 94.910156 104.933594 95.484375 104.960938 96.054688 104.960938 C 99.226562 104.945312 102.171875 104.117188 104.886719 102.480469 L 110.460938 108.054688 C 111.316406 108.910156 112.347656 109.335938 113.554688 109.335938 L 122.304688 109.335938 C 122.304688 109.441406 122.304688 109.539062 122.304688 109.644531 L 122.304688 131.214844 L 95.433594 131.214844 C 95.160156 130.167969 94.792969 129.148438 94.328125 128.167969 C 93.867188 127.1875 93.316406 126.253906 92.679688 125.375 C 92.042969 124.496094 91.332031 123.683594 90.542969 122.9375 C 89.757812 122.1875 88.90625 121.523438 87.996094 120.933594 C 87.082031 120.34375 86.125 119.84375 85.117188 119.4375 C 84.113281 119.027344 83.078125 118.710938 82.015625 118.496094 C 80.953125 118.277344 79.878906 118.160156 78.792969 118.144531 C 77.707031 118.128906 76.632812 118.210938 75.5625 118.394531 C 74.492188 118.582031 73.449219 118.863281 72.429688 119.242188 C 71.414062 119.617188 70.441406 120.089844 69.511719 120.648438 C 68.582031 121.207031 67.710938 121.851562 66.902344 122.570312 C 66.089844 123.292969 65.355469 124.085938 64.691406 124.945312 C 64.027344 125.804688 63.449219 126.71875 62.957031 127.683594 C 62.464844 128.652344 62.066406 129.65625 61.761719 130.699219 C 61.453125 131.738281 61.246094 132.800781 61.140625 133.882812 C 61.03125 134.960938 61.023438 136.042969 61.117188 137.125 C 61.210938 138.207031 61.402344 139.269531 61.695312 140.316406 C 61.988281 141.359375 62.371094 142.371094 62.851562 143.34375 C 63.332031 144.316406 63.898438 145.238281 64.546875 146.109375 C 65.199219 146.976562 65.925781 147.777344 66.726562 148.511719 C 67.527344 149.242188 68.386719 149.894531 69.308594 150.46875 C 70.230469 151.042969 71.199219 151.523438 72.210938 151.917969 C 73.222656 152.308594 74.261719 152.605469 75.328125 152.800781 C 76.394531 153 77.472656 153.097656 78.558594 153.097656 Z M 306.042969 126.839844 C 306.617188 126.839844 307.1875 126.898438 307.75 127.007812 C 308.3125 127.121094 308.859375 127.285156 309.390625 127.507812 C 309.921875 127.726562 310.425781 127.996094 310.90625 128.316406 C 311.382812 128.636719 311.824219 128.996094 312.230469 129.402344 C 312.636719 129.808594 313 130.253906 313.320312 130.730469 C 313.636719 131.207031 313.90625 131.710938 314.128906 132.242188 C 314.347656 132.773438 314.511719 133.320312 314.625 133.886719 C 314.738281 134.449219 314.792969 135.019531 314.792969 135.59375 C 314.792969 136.167969 314.738281 136.738281 314.625 137.300781 C 314.511719 137.863281 314.347656 138.410156 314.128906 138.941406 C 313.90625 139.472656 313.636719 139.976562 313.320312 140.457031 C 313 140.933594 312.636719 141.375 312.230469 141.78125 C 311.824219 142.1875 311.382812 142.550781 310.90625 142.871094 C 310.425781 143.1875 309.921875 143.457031 309.390625 143.679688 C 308.859375 143.898438 308.3125 144.066406 307.75 144.175781 C 307.1875 144.289062 306.617188 144.34375 306.042969 144.34375 C 305.46875 144.34375 304.898438 144.289062 304.335938 144.175781 C 303.773438 144.066406 303.226562 143.898438 302.695312 143.679688 C 302.164062 143.457031 301.660156 143.1875 301.183594 142.871094 C 300.703125 142.550781 300.261719 142.1875 299.855469 141.78125 C 299.449219 141.375 299.085938 140.933594 298.769531 140.457031 C 298.449219 139.976562 298.179688 139.472656 297.960938 138.941406 C 297.738281 138.410156 297.574219 137.863281 297.460938 137.300781 C 297.351562 136.738281 297.292969 136.167969 297.292969 135.59375 C 297.292969 135.019531 297.351562 134.449219 297.460938 133.886719 C 297.574219 133.320312 297.742188 132.773438 297.960938 132.242188 C 298.179688 131.710938 298.449219 131.207031 298.769531 130.730469 C 299.085938 130.253906 299.449219 129.808594 299.855469 129.402344 C 300.261719 128.996094 300.703125 128.636719 301.183594 128.316406 C 301.660156 127.996094 302.164062 127.726562 302.695312 127.507812 C 303.226562 127.285156 303.773438 127.121094 304.335938 127.007812 C 304.898438 126.898438 305.46875 126.839844 306.042969 126.839844 Z M 288.542969 78.703125 C 288.902344 78.703125 289.261719 78.726562 289.617188 78.769531 C 289.972656 78.8125 290.324219 78.875 290.671875 78.964844 C 291.019531 79.050781 291.359375 79.15625 291.695312 79.285156 C 292.027344 79.414062 292.355469 79.5625 292.671875 79.734375 C 292.988281 79.902344 293.292969 80.089844 293.585938 80.296875 C 293.878906 80.5 294.15625 80.722656 294.421875 80.964844 C 294.6875 81.207031 294.9375 81.460938 295.171875 81.734375 C 295.40625 82.003906 295.625 82.289062 295.824219 82.585938 C 296.023438 82.882812 296.203125 83.191406 296.367188 83.511719 C 296.527344 83.832031 296.667969 84.164062 296.789062 84.5 C 296.910156 84.835938 297.011719 85.179688 297.089844 85.53125 C 297.167969 85.878906 297.226562 86.234375 297.261719 86.589844 C 297.296875 86.945312 297.308594 87.304688 297.300781 87.664062 C 297.292969 88.019531 297.261719 88.378906 297.210938 88.734375 C 297.15625 89.085938 297.082031 89.4375 296.988281 89.78125 C 296.894531 90.128906 296.777344 90.46875 296.640625 90.796875 C 296.503906 91.128906 296.347656 91.453125 296.171875 91.761719 C 295.992188 92.074219 295.800781 92.375 295.585938 92.664062 C 295.371094 92.953125 295.140625 93.226562 294.894531 93.484375 C 294.648438 93.746094 294.386719 93.988281 294.109375 94.21875 C 293.832031 94.445312 293.542969 94.65625 293.242188 94.847656 C 292.9375 95.039062 292.625 95.210938 292.300781 95.363281 C 291.976562 95.519531 291.644531 95.652344 291.304688 95.765625 C 290.964844 95.878906 290.617188 95.96875 290.265625 96.039062 C 289.914062 96.109375 289.5625 96.15625 289.203125 96.183594 C 288.847656 96.210938 288.488281 96.214844 288.128906 96.199219 C 287.773438 96.179688 287.417969 96.140625 287.0625 96.078125 C 286.710938 96.019531 286.363281 95.9375 286.019531 95.832031 C 285.675781 95.730469 285.339844 95.605469 285.011719 95.460938 C 284.6875 95.3125 284.367188 95.148438 284.058594 94.964844 C 283.753906 94.78125 283.457031 94.578125 283.175781 94.359375 C 282.890625 94.136719 282.625 93.902344 282.371094 93.648438 C 281.757812 93.035156 281.25 92.347656 280.839844 91.585938 C 280.433594 90.824219 280.144531 90.019531 279.972656 89.167969 C 279.804688 88.320312 279.761719 87.464844 279.847656 86.605469 C 279.929688 85.742188 280.136719 84.914062 280.46875 84.113281 C 280.796875 83.3125 281.238281 82.578125 281.785156 81.910156 C 282.332031 81.238281 282.96875 80.664062 283.6875 80.183594 C 284.40625 79.703125 285.179688 79.335938 286.003906 79.082031 C 286.832031 78.832031 287.679688 78.703125 288.542969 78.703125 Z M 87.304688 87.457031 C 87.304688 87.097656 87.328125 86.738281 87.371094 86.382812 C 87.414062 86.027344 87.480469 85.675781 87.566406 85.328125 C 87.652344 84.980469 87.761719 84.640625 87.890625 84.304688 C 88.019531 83.96875 88.167969 83.644531 88.335938 83.328125 C 88.503906 83.011719 88.691406 82.707031 88.898438 82.414062 C 89.105469 82.121094 89.328125 81.839844 89.566406 81.574219 C 89.808594 81.308594 90.0625 81.058594 90.335938 80.824219 C 90.605469 80.589844 90.890625 80.375 91.1875 80.171875 C 91.484375 79.972656 91.792969 79.792969 92.113281 79.632812 C 92.433594 79.472656 92.761719 79.328125 93.101562 79.207031 C 93.4375 79.085938 93.78125 78.988281 94.132812 78.910156 C 94.480469 78.828125 94.835938 78.773438 95.191406 78.738281 C 95.546875 78.703125 95.90625 78.6875 96.261719 78.695312 C 96.621094 78.703125 96.976562 78.734375 97.332031 78.789062 C 97.6875 78.839844 98.035156 78.914062 98.382812 79.007812 C 98.726562 79.105469 99.066406 79.21875 99.398438 79.359375 C 99.730469 79.496094 100.050781 79.652344 100.363281 79.828125 C 100.675781 80.003906 100.972656 80.199219 101.261719 80.414062 C 101.550781 80.625 101.824219 80.855469 102.085938 81.101562 C 102.34375 81.351562 102.585938 81.613281 102.816406 81.890625 C 103.042969 82.164062 103.253906 82.457031 103.445312 82.757812 C 103.636719 83.0625 103.808594 83.375 103.960938 83.699219 C 104.117188 84.023438 104.25 84.355469 104.363281 84.695312 C 104.476562 85.035156 104.566406 85.382812 104.636719 85.734375 C 104.707031 86.085938 104.753906 86.4375 104.78125 86.796875 C 104.808594 87.152344 104.8125 87.511719 104.796875 87.871094 C 104.777344 88.226562 104.738281 88.582031 104.675781 88.9375 C 104.617188 89.289062 104.535156 89.636719 104.429688 89.980469 C 104.328125 90.324219 104.203125 90.660156 104.058594 90.988281 C 103.910156 91.316406 103.746094 91.632812 103.5625 91.941406 C 103.378906 92.25 103.175781 92.542969 102.957031 92.828125 C 102.738281 93.109375 102.5 93.378906 102.246094 93.632812 C 101.636719 94.242188 100.949219 94.753906 100.183594 95.164062 C 99.421875 95.570312 98.617188 95.859375 97.769531 96.027344 C 96.921875 96.199219 96.066406 96.242188 95.203125 96.15625 C 94.34375 96.074219 93.515625 95.867188 92.714844 95.535156 C 91.914062 95.203125 91.179688 94.765625 90.511719 94.214844 C 89.84375 93.667969 89.265625 93.035156 88.785156 92.316406 C 88.304688 91.597656 87.9375 90.824219 87.6875 89.996094 C 87.433594 89.167969 87.308594 88.320312 87.304688 87.457031 Z M 78.558594 126.839844 C 79.132812 126.839844 79.699219 126.898438 80.265625 127.007812 C 80.828125 127.121094 81.375 127.285156 81.90625 127.507812 C 82.4375 127.726562 82.941406 127.996094 83.417969 128.316406 C 83.894531 128.636719 84.335938 128.996094 84.742188 129.402344 C 85.148438 129.808594 85.511719 130.253906 85.832031 130.730469 C 86.152344 131.207031 86.421875 131.710938 86.640625 132.242188 C 86.859375 132.773438 87.027344 133.320312 87.136719 133.886719 C 87.25 134.449219 87.304688 135.019531 87.304688 135.59375 C 87.304688 136.167969 87.25 136.738281 87.136719 137.300781 C 87.027344 137.863281 86.859375 138.410156 86.640625 138.941406 C 86.421875 139.472656 86.152344 139.976562 85.832031 140.457031 C 85.511719 140.933594 85.148438 141.375 84.742188 141.78125 C 84.335938 142.1875 83.894531 142.550781 83.417969 142.871094 C 82.941406 143.1875 82.4375 143.457031 81.90625 143.679688 C 81.375 143.898438 80.828125 144.066406 80.265625 144.175781 C 79.699219 144.289062 79.132812 144.34375 78.558594 144.34375 C 77.984375 144.34375 77.414062 144.289062 76.851562 144.175781 C 76.285156 144.066406 75.738281 143.898438 75.207031 143.679688 C 74.679688 143.457031 74.171875 143.1875 73.695312 142.871094 C 73.21875 142.550781 72.777344 142.1875 72.371094 141.78125 C 71.964844 141.375 71.601562 140.933594 71.28125 140.457031 C 70.964844 139.976562 70.695312 139.472656 70.472656 138.941406 C 70.253906 138.410156 70.085938 137.863281 69.976562 137.300781 C 69.863281 136.738281 69.808594 136.167969 69.808594 135.59375 C 69.808594 135.019531 69.863281 134.449219 69.976562 133.886719 C 70.085938 133.320312 70.253906 132.773438 70.472656 132.242188 C 70.695312 131.710938 70.964844 131.207031 71.28125 130.730469 C 71.601562 130.253906 71.964844 129.808594 72.371094 129.402344 C 72.777344 128.996094 73.21875 128.636719 73.695312 128.316406 C 74.171875 127.996094 74.679688 127.726562 75.207031 127.507812 C 75.738281 127.285156 76.285156 127.121094 76.851562 127.007812 C 77.414062 126.898438 77.984375 126.839844 78.558594 126.839844 Z M 78.558594 126.839844 " fill-opacity="1" fill-rule="nonzero"/></g><path fill="#000000" d="M 157.300781 297.507812 L 174.800781 297.507812 L 174.800781 315.011719 L 157.300781 315.011719 Z M 157.300781 297.507812 " fill-opacity="1" fill-rule="nonzero"/><path fill="#000000" d="M 205.425781 293.132812 L 222.921875 293.132812 L 222.921875 310.636719 L 205.425781 310.636719 Z M 205.425781 293.132812 " fill-opacity="1" fill-rule="nonzero"/><path fill="#000000" d="M 183.550781 201.234375 L 166.050781 201.234375 C 165.765625 201.234375 165.480469 201.261719 165.199219 201.320312 C 164.917969 201.375 164.644531 201.457031 164.378906 201.566406 C 164.113281 201.675781 163.859375 201.8125 163.621094 201.972656 C 163.382812 202.132812 163.160156 202.3125 162.957031 202.515625 C 162.753906 202.71875 162.574219 202.941406 162.414062 203.179688 C 162.253906 203.417969 162.121094 203.671875 162.011719 203.9375 C 161.898438 204.203125 161.816406 204.476562 161.761719 204.757812 C 161.707031 205.039062 161.675781 205.324219 161.675781 205.609375 C 161.675781 205.898438 161.707031 206.183594 161.761719 206.464844 C 161.816406 206.746094 161.898438 207.019531 162.011719 207.285156 C 162.121094 207.550781 162.253906 207.804688 162.414062 208.042969 C 162.574219 208.28125 162.753906 208.5 162.957031 208.703125 C 163.160156 208.90625 163.382812 209.089844 163.621094 209.25 C 163.859375 209.410156 164.113281 209.542969 164.378906 209.652344 C 164.644531 209.761719 164.917969 209.847656 165.199219 209.902344 C 165.480469 209.957031 165.765625 209.988281 166.050781 209.988281 L 183.550781 209.988281 C 183.839844 209.988281 184.121094 209.957031 184.40625 209.902344 C 184.6875 209.847656 184.960938 209.761719 185.226562 209.652344 C 185.492188 209.542969 185.742188 209.410156 185.980469 209.25 C 186.21875 209.089844 186.441406 208.90625 186.644531 208.703125 C 186.847656 208.5 187.027344 208.28125 187.1875 208.042969 C 187.347656 207.804688 187.484375 207.550781 187.59375 207.285156 C 187.703125 207.019531 187.785156 206.746094 187.839844 206.464844 C 187.898438 206.183594 187.925781 205.898438 187.925781 205.609375 C 187.925781 205.324219 187.898438 205.039062 187.839844 204.757812 C 187.785156 204.476562 187.703125 204.203125 187.59375 203.9375 C 187.484375 203.671875 187.347656 203.417969 187.1875 203.179688 C 187.027344 202.941406 186.847656 202.71875 186.644531 202.515625 C 186.441406 202.3125 186.21875 202.132812 185.980469 201.972656 C 185.742188 201.8125 185.492188 201.675781 185.226562 201.566406 C 184.960938 201.457031 184.6875 201.375 184.40625 201.320312 C 184.121094 201.261719 183.839844 201.234375 183.550781 201.234375 Z M 183.550781 201.234375 " fill-opacity="1" fill-rule="nonzero"/><path fill="#000000" d="M 218.546875 201.234375 L 201.050781 201.234375 C 200.761719 201.234375 200.476562 201.261719 200.195312 201.320312 C 199.914062 201.375 199.640625 201.457031 199.375 201.566406 C 199.109375 201.675781 198.859375 201.8125 198.621094 201.972656 C 198.378906 202.132812 198.160156 202.3125 197.957031 202.515625 C 197.753906 202.71875 197.570312 202.941406 197.414062 203.179688 C 197.253906 203.417969 197.117188 203.671875 197.007812 203.9375 C 196.898438 204.203125 196.816406 204.476562 196.757812 204.757812 C 196.703125 205.039062 196.675781 205.324219 196.675781 205.609375 C 196.675781 205.898438 196.703125 206.183594 196.757812 206.464844 C 196.816406 206.746094 196.898438 207.019531 197.007812 207.285156 C 197.117188 207.550781 197.253906 207.804688 197.414062 208.042969 C 197.570312 208.28125 197.753906 208.5 197.957031 208.703125 C 198.160156 208.90625 198.378906 209.089844 198.621094 209.25 C 198.859375 209.410156 199.109375 209.542969 199.375 209.652344 C 199.640625 209.761719 199.914062 209.847656 200.195312 209.902344 C 200.476562 209.957031 200.761719 209.988281 201.050781 209.988281 L 218.546875 209.988281 C 218.835938 209.988281 219.121094 209.957031 219.402344 209.902344 C 219.683594 209.847656 219.957031 209.761719 220.222656 209.652344 C 220.488281 209.542969 220.742188 209.410156 220.980469 209.25 C 221.21875 209.089844 221.4375 208.90625 221.640625 208.703125 C 221.84375 208.5 222.027344 208.28125 222.1875 208.042969 C 222.347656 207.804688 222.480469 207.550781 222.589844 207.285156 C 222.699219 207.019531 222.785156 206.746094 222.839844 206.464844 C 222.894531 206.183594 222.921875 205.898438 222.921875 205.609375 C 222.921875 205.324219 222.894531 205.039062 222.839844 204.757812 C 222.785156 204.476562 222.699219 204.203125 222.589844 203.9375 C 222.480469 203.671875 222.347656 203.417969 222.1875 203.179688 C 222.027344 202.941406 221.84375 202.71875 221.640625 202.515625 C 221.4375 202.3125 221.21875 202.132812 220.980469 201.972656 C 220.742188 201.8125 220.488281 201.675781 220.222656 201.566406 C 219.957031 201.457031 219.683594 201.375 219.402344 201.320312 C 219.121094 201.261719 218.835938 201.234375 218.546875 201.234375 Z M 218.546875 201.234375 " fill-opacity="1" fill-rule="nonzero"/></svg>