<svg xmlns="http://www.w3.org/2000/svg" width="24" height="24" viewBox="0 0 24 24" fill="currentColor">
  <path d="M20.9 0H3.1C1.39 0 0 1.39 0 3.1v17.8C0 22.61 1.39 24 3.1 24h17.8c1.71 0 3.1-1.39 3.1-3.1V3.1C24 1.39 22.61 0 20.9 0zM7.71 19.19H4.12V9.72h3.59v9.47zM5.92 8.69h-.03c-1.22 0-2.01-.84-2.01-1.89 0-1.1.8-1.89 2.04-1.89 1.24 0 2.01.79 2.04 1.89.02 1.05-.78 1.89-2.04 1.89zm14.27 10.5h-3.59v-5.91c0-1.47-.53-2.47-1.86-2.47-1.01 0-1.61.68-1.88 1.34-.1.23-.12.54-.12.86v5.18h-3.59s.05-10.5 0-11.57h3.59v1.64c.48-.74 1.34-1.8 3.27-1.8 2.39 0 4.19 1.56 4.19 4.9v7.83z"/>
</svg>
