<svg _ngcontent-wrk-c2="" fill="#818ea3" xmlns="http://www.w3.org/2000/svg" focusable="false" aria-hidden="true" viewBox="0 0 19 19" width="18" transform=""><path fill-rule="evenodd" clip-rule="evenodd" d="M17.4786 0.0213583C19.0387 -0.182682 20.325 1.10364 20.1209 2.66374C19.8271 4.91086 19.0195 8.73685 16.7303 11.2051C16.0074 11.9845 15.1356 12.7047 14.2386 13.3452L14.4989 15.1675C14.5747 15.6979 14.3963 16.2331 14.0175 16.6119L10.9875 19.6418C9.99569 20.6337 8.29717 20.0675 8.0988 18.6789L7.69737 15.8689C7.44283 15.7432 7.20675 15.5751 7.0005 15.3689L4.77342 13.1418C4.56718 12.9356 4.39907 12.6995 4.27338 12.445L1.46337 12.0435C0.0747726 11.8452 -0.491402 10.1466 0.500456 9.15478L3.53037 6.12486C3.90923 5.746 4.44435 5.56763 4.97475 5.6434L6.79709 5.90374C7.43756 5.00673 8.15782 4.13489 8.9372 3.41205C11.4055 1.12283 15.2314 0.315253 17.4786 0.0213583ZM2.90777 13.1946C3.20066 13.4875 3.20066 13.9624 2.90777 14.2553L1.56114 15.6019C1.26824 15.8948 0.793371 15.8948 0.500477 15.6019C0.207584 15.309 0.207583 14.8342 0.500477 14.5413L1.84711 13.1946C2.14 12.9018 2.61487 12.9018 2.90777 13.1946ZM4.92771 15.2146C5.2206 15.5075 5.2206 15.9824 4.92771 16.2752L2.23445 18.9685C1.94156 19.2614 1.46668 19.2614 1.17379 18.9685C0.880898 18.6756 0.880899 18.2007 1.17379 17.9078L3.86705 15.2146C4.15994 14.9217 4.63482 14.9217 4.92771 15.2146ZM6.94765 17.2345C7.24055 17.5274 7.24055 18.0023 6.94765 18.2952L5.60103 19.6418C5.30813 19.9347 4.83326 19.9347 4.54037 19.6418C4.24747 19.3489 4.24747 18.8741 4.54037 18.5812L5.88699 17.2345C6.17989 16.9416 6.65476 16.9416 6.94765 17.2345ZM11.8035 8.33841C11.0598 7.59468 11.0598 6.38887 11.8035 5.64515C12.5472 4.90143 13.753 4.90143 14.4968 5.64515C15.2405 6.38887 15.2405 7.59468 14.4968 8.33841C13.753 9.08213 12.5472 9.08213 11.8035 8.33841Z" fill="#818ea3"></path></svg>