<svg _ngcontent-syw-c2="" fill="currentColor" xmlns="http://www.w3.org/2000/svg" focusable="false" aria-hidden="true" viewBox="0 0 20 15" width="20" transform=""><path fill-rule="evenodd" clip-rule="evenodd" d="M16.0312 12.5H13.75C13.109 12.5 12.5806 12.9826 12.5084 13.6042L12.5 13.75C12.5 14.391 12.9826 14.9194 13.6042 14.9916L13.75 15H18.75L18.793 14.9993C18.8251 14.9982 18.8573 14.9959 18.8894 14.9923L18.75 15C18.8172 15 18.8832 14.9947 18.9475 14.9845C18.9722 14.9806 18.9972 14.9758 19.022 14.9703L19.0366 14.967L19.0962 14.9514C19.1212 14.9442 19.1461 14.9362 19.1708 14.9274C19.3111 14.8773 19.4402 14.8025 19.5525 14.7084C19.5562 14.7053 19.5599 14.7022 19.5635 14.6991L19.5816 14.6832C19.6116 14.6565 19.6402 14.6284 19.6675 14.5989L19.5635 14.6991C19.6084 14.6606 19.65 14.6195 19.688 14.5764C19.7132 14.5477 19.7373 14.5177 19.7601 14.4865C19.7675 14.4766 19.7747 14.4666 19.7816 14.4564C19.8012 14.4276 19.8197 14.3981 19.8369 14.3678C19.8454 14.3531 19.8536 14.338 19.8614 14.3227C19.874 14.2982 19.8859 14.2732 19.8969 14.2478C19.9053 14.2284 19.9131 14.209 19.9204 14.1895C19.9323 14.1582 19.9429 14.1262 19.9522 14.0936C19.9554 14.0816 19.9585 14.0699 19.9615 14.0581C19.9751 14.0054 19.9852 13.9511 19.9916 13.8958L20 13.75V8.75001C20 8.05966 19.4403 7.50002 18.75 7.50002C18.1089 7.50002 17.5806 7.98257 17.5084 8.60424L17.5 8.75001L17.5 10.3725L12.1991 4.18653C11.7591 3.67318 10.9997 3.60856 10.4812 4.01418L10.3661 4.11614L7.58377 6.89752L2.2103 0.4498C1.80235 -0.0397492 1.09936 -0.138462 0.57649 0.196858L0.4498 0.289755C-0.0397492 0.697713 -0.138462 1.4007 0.196857 1.92357L0.289754 2.05026L6.53974 9.55024C6.97669 10.0746 7.74412 10.1454 8.26767 9.73673L8.3839 9.63389L11.1788 6.84002L16.0312 12.5Z" fill="currentColor"></path></svg>