<svg xmlns="http://www.w3.org/2000/svg" xmlns:xlink="http://www.w3.org/1999/xlink" width="512" zoomAndPan="magnify" viewBox="0 0 384 383.999986" height="512" preserveAspectRatio="xMidYMid meet" version="1.0"><path fill="#000000" d="M 182.546875 246.351562 C 186.1875 247.261719 187.097656 243.621094 187.097656 245.441406 C 182.546875 252.726562 178.90625 257.277344 177.996094 257.277344 C 156.144531 261.828125 150.683594 262.738281 144.308594 267.292969 C 148.863281 268.203125 152.503906 268.203125 157.964844 267.292969 C 156.144531 267.292969 142.488281 269.113281 138.847656 267.292969 C 132.476562 265.472656 130.652344 256.367188 124.28125 256.367188 C 125.191406 254.546875 125.191406 250.902344 127.921875 249.082031 C 129.742188 248.171875 132.476562 249.082031 135.207031 249.082031 C 130.652344 249.082031 130.652344 247.261719 132.476562 251.8125 C 133.386719 253.636719 132.476562 256.367188 133.386719 257.277344 C 136.117188 260.007812 138.847656 257.277344 139.757812 257.277344 C 141.578125 257.277344 142.488281 258.1875 144.308594 257.277344 C 145.222656 257.277344 146.132812 255.457031 147.042969 255.457031 C 147.953125 255.457031 148.863281 255.457031 148.863281 255.457031 C 153.414062 256.367188 154.324219 254.546875 156.144531 252.726562 L 157.964844 252.726562 C 163.429688 252.726562 162.519531 249.992188 164.339844 249.082031 C 166.160156 248.171875 168.890625 250.902344 171.621094 248.171875 L 172.53125 247.261719 C 174.355469 249.082031 177.085938 252.726562 182.546875 246.351562 Z M 177.996094 257.277344 C 172.53125 262.738281 167.070312 266.382812 159.785156 267.292969 C 165.25 266.382812 174.355469 260.917969 177.996094 257.277344 Z M 140.667969 248.171875 C 147.042969 245.441406 150.683594 240.890625 166.160156 242.710938 C 170.710938 243.621094 176.175781 244.53125 180.726562 245.441406 C 176.175781 244.53125 164.339844 240.890625 152.503906 242.710938 C 147.953125 243.621094 144.308594 246.351562 140.667969 248.171875 Z M 140.667969 248.171875 " fill-opacity="1" fill-rule="evenodd"/><path fill="#000000" d="M 90.597656 168.960938 C 91.507812 173.515625 92.417969 177.15625 91.507812 180.796875 C 90.59375 185.351562 87.863281 189.902344 88.773438 195.367188 C 88.773438 200.828125 94.238281 201.738281 94.238281 205.382812 C 92.417969 229.054688 92.417969 229.050781 103.339844 249.992188 C 111.535156 266.382812 106.984375 265.472656 132.472656 288.230469 C 133.382812 289.144531 134.296875 288.230469 134.296875 288.230469 C 136.117188 286.410156 131.5625 285.5 121.550781 274.574219 C 111.535156 263.648438 111.535156 258.1875 106.984375 249.082031 C 102.429688 239.066406 98.789062 233.605469 98.789062 223.589844 C 97.878906 214.484375 99.699219 208.113281 99.699219 205.382812 C 99.699219 200.828125 97.878906 200.828125 95.148438 197.1875 C 91.507812 192.632812 97.878906 185.351562 96.058594 175.335938 C 96.058594 172.605469 95.148438 169.875 94.238281 168.050781 C 92.417969 167.140625 89.683594 167.140625 90.597656 168.960938 Z M 90.597656 168.960938 " fill-opacity="1" fill-rule="evenodd"/><path fill="#000000" d="M 124.28125 270.933594 C 133.386719 291.875 129.746094 296.425781 135.207031 303.710938 C 142.488281 312.816406 169.800781 317.367188 188.921875 300.980469 C 190.742188 300.070312 188.921875 297.335938 187.101562 299.15625 C 177.085938 307.351562 166.160156 308.261719 153.414062 306.441406 C 130.65625 303.710938 140.667969 296.425781 126.101562 269.113281 C 126.101562 268.203125 123.371094 269.113281 124.28125 270.933594 Z M 124.28125 270.933594 " fill-opacity="1" fill-rule="evenodd"/><path fill="#000000" d="M 208.949219 307.355469 C 225.335938 299.160156 232.621094 287.324219 243.542969 272.757812 C 248.097656 267.292969 252.648438 262.742188 254.46875 254.546875 C 256.289062 240.890625 249.917969 235.429688 254.46875 219.949219 C 259.023438 219.949219 263.574219 218.128906 267.214844 215.398438 C 278.140625 206.292969 278.140625 195.367188 280.871094 182.621094 C 282.691406 173.519531 284.511719 164.414062 279.050781 156.21875 C 272.679688 146.203125 259.023438 146.203125 250.828125 154.398438 C 247.1875 158.039062 245.367188 162.59375 244.457031 168.054688 C 243.542969 169.875 246.277344 170.785156 247.1875 168.964844 C 248.097656 164.414062 249.917969 159.859375 253.558594 157.128906 C 259.933594 150.757812 270.855469 150.757812 276.320312 158.949219 C 280.871094 166.234375 279.050781 174.429688 277.230469 182.621094 C 274.5 195.367188 274.488281 201.292969 265.386719 209.488281 C 258.101562 215.859375 251.929688 211.757812 251.019531 215.398438 C 244.644531 236.339844 255.054688 247.402344 247.769531 260.148438 C 246.859375 261.058594 230.347656 286.195312 224.886719 291.65625 C 220.332031 296.210938 214.410156 299.808594 208.949219 303.453125 C 207.574219 304.371094 207.128906 308.265625 208.949219 307.355469 Z M 208.949219 307.355469 " fill-opacity="1" fill-rule="evenodd"/><path fill="#000000" d="M 144.308594 308.261719 C 147.042969 314.636719 146.128906 317.367188 155.234375 327.382812 C 156.144531 329.203125 158.875 327.382812 157.964844 325.5625 C 153.414062 315.546875 154.324219 316.457031 147.042969 306.441406 C 146.128906 305.53125 143.398438 306.441406 144.308594 308.261719 Z M 144.308594 308.261719 " fill-opacity="1" fill-rule="evenodd"/><path fill="#000000" d="M 124.28125 329.207031 C 137.027344 329.207031 143.398438 321.921875 147.039062 309.175781 C 147.953125 307.355469 145.21875 306.445312 144.308594 308.265625 C 139.757812 316.460938 132.472656 324.652344 123.371094 326.472656 C 121.550781 327.382812 122.460938 330.117188 124.28125 329.207031 Z M 124.28125 329.207031 " fill-opacity="1" fill-rule="evenodd"/><path fill="#000000" d="M 265.394531 214.074219 C 257.199219 239.566406 255.378906 259.097656 265.394531 289.144531 C 270.855469 305.53125 289.066406 316.457031 305.453125 327.382812 C 306.363281 327.382812 307.273438 327.382812 307.273438 327.382812 C 310.003906 323.738281 276.320312 309.171875 269.035156 288.230469 C 261.753906 263.648438 260.84375 238.65625 269.035156 214.074219 C 270.855469 212.253906 266.304688 212.253906 265.394531 214.074219 Z M 265.394531 214.074219 " fill-opacity="1" fill-rule="evenodd"/><path fill="#000000" d="M 114.265625 184.441406 C 124.28125 190.816406 125.191406 188.996094 124.28125 195.367188 C 123.371094 217.21875 113.355469 223.59375 120.640625 228.144531 C 122.460938 229.054688 123.371094 227.234375 122.460938 226.324219 C 118.820312 223.59375 124.28125 219.949219 126.101562 210.84375 C 132.476562 188.085938 127.921875 188.085938 114.265625 182.621094 C 113.355469 180.800781 112.445312 183.53125 114.265625 184.441406 Z M 114.265625 184.441406 " fill-opacity="1" fill-rule="evenodd"/><path fill="#000000" d="M 136.117188 232.699219 C 131.566406 234.519531 131.566406 231.789062 127.921875 232.699219 C 127.011719 232.699219 124.28125 233.609375 121.550781 232.699219 C 117.910156 230.878906 117.910156 229.054688 116.089844 229.964844 C 114.265625 231.789062 117.910156 234.519531 119.730469 235.429688 C 123.371094 237.25 125.191406 237.25 128.832031 236.339844 C 132.476562 237.25 133.386719 239.070312 141.578125 235.429688 C 146.132812 233.609375 144.308594 230.878906 141.578125 229.964844 C 147.042969 228.144531 155.234375 232.699219 160.699219 224.503906 C 166.160156 216.308594 156.144531 207.207031 148.863281 211.757812 C 147.042969 212.667969 143.398438 216.308594 145.222656 217.21875 C 147.042969 218.132812 147.042969 216.308594 149.773438 214.488281 C 154.324219 211.757812 160.699219 217.21875 157.054688 221.773438 C 152.503906 228.144531 147.042969 222.683594 139.757812 225.414062 C 136.117188 227.234375 134.296875 229.96875 136.117188 232.699219 Z M 138.847656 230.878906 C 139.757812 230.878906 139.757812 230.878906 138.847656 230.878906 C 139.757812 229.96875 138.847656 229.96875 138.847656 230.878906 Z M 140.667969 229.964844 C 140.667969 230.878906 140.667969 230.878906 140.667969 229.964844 Z M 140.667969 229.964844 C 140.667969 229.054688 140.667969 229.054688 140.667969 229.964844 Z M 140.667969 229.964844 " fill-opacity="1" fill-rule="evenodd"/><path fill="#000000" d="M 186.1875 243.621094 C 184.367188 245.441406 182.546875 244.53125 180.726562 243.621094 C 147.042969 235.425781 147.042969 243.621094 136.117188 246.351562 C 134.296875 246.351562 131.5625 245.441406 128.832031 245.441406 C 123.371094 246.351562 122.460938 251.816406 121.550781 254.546875 C 120.640625 256.367188 122.460938 258.1875 124.28125 258.1875 C 128.832031 258.1875 131.5625 267.292969 138.847656 269.113281 C 144.308594 270.933594 159.785156 269.113281 165.25 267.292969 C 176.175781 263.652344 182.546875 254.546875 188.917969 244.53125 C 189.832031 243.621094 187.097656 242.710938 186.1875 243.621094 Z M 183.457031 247.261719 C 177.996094 247.261719 168.890625 243.621094 157.054688 244.53125 C 144.308594 245.441406 141.578125 252.726562 134.296875 251.816406 C 128.832031 251.816406 127.921875 249.082031 127.011719 254.546875 C 139.757812 259.097656 127.011719 268.203125 158.875 264.5625 C 170.710938 263.652344 177.085938 257.277344 183.457031 247.261719 Z M 183.457031 247.261719 " fill-opacity="1" fill-rule="evenodd"/><path fill="#000000" d="M 139.757812 279.128906 C 150.683594 286.414062 174.351562 280.953125 172.53125 276.398438 C 171.621094 274.578125 170.710938 276.398438 163.429688 277.308594 C 160.695312 277.308594 145.21875 278.21875 141.578125 276.398438 C 139.757812 276.398438 137.9375 278.21875 139.757812 279.128906 Z M 139.757812 279.128906 " fill-opacity="1" fill-rule="evenodd"/><path fill="#000000" d="M 164.339844 211.753906 C 170.710938 215.394531 183.457031 229.054688 185.277344 231.785156 C 188.921875 237.246094 188.011719 239.066406 190.742188 239.066406 C 195.292969 238.15625 184.367188 220.859375 174.355469 213.574219 C 163.429688 206.292969 162.519531 210.84375 164.339844 211.753906 Z M 164.339844 211.753906 " fill-opacity="1" fill-rule="evenodd"/><path fill="#000000" d="M 196.203125 226.324219 C 204.398438 237.25 199.84375 240.890625 192.5625 268.203125 C 190.742188 274.578125 189.832031 282.769531 184.367188 286.414062 C 182.546875 287.324219 184.367188 290.054688 186.1875 289.144531 C 192.5625 285.503906 194.382812 276.398438 197.113281 270.023438 C 205.308594 244.53125 208.949219 237.25 198.933594 225.414062 C 197.113281 223.589844 194.382812 225.414062 196.203125 226.324219 Z M 196.203125 226.324219 " fill-opacity="1" fill-rule="evenodd"/><path fill="#000000" d="M 111.535156 236.339844 C 102.429688 248.175781 108.804688 254.550781 118.820312 264.5625 C 119.730469 266.386719 122.460938 264.5625 120.640625 262.742188 C 113.355469 252.726562 109.714844 248.175781 114.265625 237.25 C 114.265625 235.429688 112.445312 234.519531 111.535156 236.339844 Z M 111.535156 236.339844 " fill-opacity="1" fill-rule="evenodd"/><path fill="#000000" d="M 135.207031 179.890625 C 133.386719 187.171875 135.207031 191.726562 141.578125 195.367188 C 143.398438 196.277344 144.308594 194.457031 143.398438 193.546875 C 140.667969 190.816406 138.847656 182.621094 137.9375 179.890625 C 137.9375 178.070312 135.207031 178.070312 135.207031 179.890625 Z M 135.207031 179.890625 " fill-opacity="1" fill-rule="evenodd"/><path fill="#000000" d="M 150.683594 187.171875 C 155.234375 181.710938 157.964844 181.710938 165.25 182.621094 C 178.90625 183.53125 178.90625 183.53125 179.816406 181.710938 C 179.816406 179.886719 177.085938 179.886719 172.53125 178.976562 C 165.25 177.15625 157.054688 175.335938 151.59375 181.710938 C 145.21875 188.082031 149.773438 188.082031 150.683594 187.171875 Z M 150.683594 187.171875 " fill-opacity="1" fill-rule="evenodd"/><path fill="#000000" d="M 186.1875 180.800781 C 192.5625 179.890625 197.113281 177.160156 199.84375 168.964844 C 200.753906 167.144531 198.023438 166.234375 197.113281 168.054688 C 194.382812 171.699219 187.097656 177.160156 185.277344 178.070312 C 183.457031 178.980469 184.367188 181.710938 186.1875 180.800781 Z M 186.1875 180.800781 " fill-opacity="1" fill-rule="evenodd"/><path fill="#000000" d="M 190.742188 185.351562 C 192.5625 185.351562 194.382812 186.261719 196.203125 187.171875 C 198.933594 188.082031 202.574219 188.992188 204.398438 188.992188 C 206.21875 189.902344 207.128906 187.171875 205.308594 186.261719 C 198.933594 180.796875 195.292969 180.796875 189.832031 181.710938 C 188.917969 182.621094 188.917969 185.351562 190.742188 185.351562 Z M 190.742188 185.351562 " fill-opacity="1" fill-rule="evenodd"/><path fill="#000000" d="M 100.609375 201.742188 C 108.804688 194.460938 109.714844 196.28125 121.550781 197.191406 C 123.371094 197.191406 123.371094 194.460938 122.460938 194.460938 C 116.996094 192.636719 111.535156 189.90625 105.160156 193.550781 C 102.429688 195.371094 101.519531 197.191406 98.789062 200.832031 C 96.96875 201.742188 98.789062 203.5625 100.609375 201.742188 Z M 100.609375 201.742188 " fill-opacity="1" fill-rule="evenodd"/><path fill="#000000" d="M 122.460938 149.84375 C 116.089844 162.589844 116.089844 169.875 127.921875 178.066406 C 129.742188 178.976562 130.65625 177.15625 129.742188 176.246094 C 123.371094 169.871094 122.460938 165.320312 123.371094 158.949219 C 124.28125 151.664062 126.101562 150.753906 124.28125 149.84375 C 123.371094 148.023438 122.460938 148.933594 122.460938 149.84375 Z M 122.460938 149.84375 " fill-opacity="1" fill-rule="evenodd"/><path fill="#000000" d="M 105.164062 147.113281 C 117.90625 135.277344 118.820312 136.1875 133.386719 137.097656 C 139.757812 137.097656 146.128906 136.1875 152.503906 136.1875 C 154.324219 136.1875 154.324219 133.457031 152.503906 133.457031 C 116.085938 131.636719 117.910156 127.996094 102.429688 145.292969 C 102.429688 146.203125 104.253906 148.023438 105.164062 147.113281 Z M 105.164062 147.113281 " fill-opacity="1" fill-rule="evenodd"/><path fill="#000000" d="M 190.40625 165.09375 C 180.125 173.171875 162.5 170.234375 151.480469 166.5625 C 145.605469 164.359375 136.058594 159.953125 131.652344 166.5625 C 126.511719 143.792969 158.824219 159.21875 174.25 161.421875 C 177.921875 161.421875 188.203125 159.21875 190.40625 165.09375 Z M 190.40625 165.09375 " fill-opacity="1" fill-rule="evenodd"/><path fill="#000000" d="M 190.40625 164.359375 C 188.203125 157.75 180.125 162.15625 165.4375 157.75 C 150.746094 153.34375 129.449219 145.261719 127.980469 162.15625 C 127.246094 170.96875 131.652344 170.234375 133.121094 168.03125 C 136.058594 162.890625 144.871094 167.296875 150.011719 168.765625 C 180.125 178.3125 195.546875 165.828125 190.40625 164.359375 Z M 188.203125 165.09375 C 186.734375 161.421875 177.1875 162.890625 173.515625 162.890625 C 159.558594 161.421875 135.324219 149.671875 133.855469 161.421875 C 143.402344 157.015625 169.84375 176.84375 188.203125 165.09375 Z M 188.203125 165.09375 " fill-opacity="1" fill-rule="evenodd"/><path fill="#000000" d="M 112.554688 163.625 C 103.007812 162.15625 96.398438 173.90625 91.992188 181.25 C 89.789062 184.921875 88.320312 190.800781 92.726562 193.738281 C 92.726562 193.738281 92.726562 193.003906 94.929688 190.066406 C 103.007812 179.046875 108.148438 179.046875 112.554688 172.4375 C 114.023438 170.234375 114.761719 167.296875 113.289062 165.09375 Z M 112.554688 163.625 " fill-opacity="1" fill-rule="evenodd"/><path fill="#000000" d="M 94.929688 193.738281 C 103.007812 180.519531 115.496094 176.109375 115.496094 168.03125 C 115.496094 165.828125 114.761719 164.359375 114.027344 163.625 C 114.027344 160.6875 105.210938 162.15625 100.804688 165.828125 C 96.398438 169.5 86.117188 181.253906 87.585938 189.332031 C 87.585938 194.472656 93.460938 198.878906 94.929688 193.738281 Z M 111.824219 164.359375 C 103.742188 164.359375 97.867188 174.640625 94.195312 181.988281 C 92.726562 184.191406 91.992188 186.394531 92.726562 188.597656 C 100.070312 176.84375 111.824219 173.90625 112.558594 167.296875 C 112.558594 165.828125 111.824219 165.828125 111.824219 164.359375 Z M 111.824219 164.359375 " fill-opacity="1" fill-rule="evenodd"/><path fill="#000000" d="M 272.664062 143.058594 C 272.664062 142.324219 274.132812 140.121094 274.132812 139.386719 C 274.132812 138.652344 270.460938 138.652344 269.726562 132.777344 C 269.726562 129.101562 273.398438 126.164062 273.398438 123.226562 C 273.398438 121.757812 271.195312 122.492188 269.726562 121.757812 C 267.523438 120.289062 266.054688 117.351562 265.320312 115.148438 C 264.585938 112.210938 265.320312 109.273438 266.054688 107.070312 C 266.054688 106.335938 266.789062 104.132812 266.789062 103.398438 C 266.054688 101.925781 257.976562 103.394531 255.773438 86.503906 C 255.773438 85.035156 255.773438 82.097656 255.035156 81.363281 C 254.300781 80.628906 250.628906 80.628906 249.160156 80.628906 C 242.550781 78.425781 236.675781 73.28125 233.738281 68.140625 C 233.003906 67.40625 232.269531 64.46875 231.535156 63.734375 L 227.863281 65.9375 C 218.316406 69.609375 208.769531 58.59375 206.566406 58.59375 C 205.828125 58.59375 203.625 60.796875 202.890625 60.796875 C 194.078125 65.203125 188.9375 57.125 184.53125 56.390625 C 183.796875 56.390625 182.328125 57.859375 182.328125 58.59375 C 177.1875 62.265625 169.84375 62.265625 164.703125 60.796875 C 163.234375 60.0625 159.5625 57.859375 158.09375 57.859375 C 155.886719 57.859375 151.480469 65.9375 137.527344 61.53125 C 133.855469 68.140625 126.511719 73.28125 119.167969 74.753906 C 116.230469 75.488281 113.292969 74.753906 111.089844 74.753906 C 106.679688 74.019531 108.882812 73.28125 107.414062 79.160156 C 103.742188 95.316406 90.523438 95.316406 88.320312 97.519531 C 87.585938 98.253906 90.523438 106.335938 79.507812 111.476562 C 77.304688 112.210938 75.835938 111.476562 80.242188 115.882812 C 87.585938 123.960938 86.117188 127.632812 81.710938 135.714844 C 81.710938 136.449219 80.976562 136.449219 80.976562 137.183594 C 82.445312 137.917969 84.648438 135.714844 86.851562 137.183594 C 96.398438 141.589844 86.117188 157.011719 86.851562 159.214844 C 87.585938 159.949219 89.054688 159.949219 89.789062 160.683594 C 91.257812 162.152344 91.257812 166.5625 91.257812 168.03125 C 90.523438 157.746094 91.257812 148.199219 94.929688 138.652344 C 100.070312 123.960938 105.210938 129.101562 109.621094 128.367188 C 110.355469 128.367188 109.617188 126.164062 110.355469 125.429688 C 113.292969 119.554688 127.246094 127.632812 133.121094 127.632812 C 133.855469 127.632812 138.996094 127.632812 138.996094 126.898438 C 139.730469 126.164062 136.792969 126.164062 136.058594 125.429688 C 133.855469 123.960938 128.714844 121.023438 131.652344 118.085938 C 133.855469 115.882812 138.996094 116.617188 141.933594 116.617188 C 147.808594 116.617188 155.152344 113.679688 160.296875 114.414062 C 163.234375 115.148438 164.703125 116.617188 166.90625 117.351562 L 167.640625 115.882812 C 171.3125 109.273438 182.328125 109.273438 188.9375 120.289062 L 189.671875 121.757812 C 192.609375 121.023438 191.875 114.414062 196.28125 117.351562 C 202.890625 121.023438 197.015625 131.304688 198.484375 137.183594 C 199.953125 143.058594 208.769531 145.261719 211.707031 150.402344 C 216.847656 159.214844 208.035156 173.171875 229.332031 181.984375 C 231.535156 182.71875 231.535156 184.921875 233.003906 178.3125 C 233.738281 173.90625 236.675781 164.359375 242.550781 168.03125 C 245.488281 157.011719 256.507812 144.527344 268.992188 151.871094 C 274.132812 150.402344 269.726562 150.402344 272.664062 143.058594 Z M 272.664062 143.058594 " fill-opacity="1" fill-rule="evenodd"/><path fill="#000000" d="M 80.242188 133.511719 C 78.039062 136.449219 79.507812 138.652344 83.179688 138.652344 C 83.914062 138.652344 85.382812 137.917969 86.117188 137.917969 C 90.523438 140.121094 88.320312 146.730469 86.851562 151.136719 C 84.648438 156.277344 82.445312 159.953125 89.054688 161.421875 C 89.789062 162.15625 89.054688 162.890625 89.789062 167.296875 C 89.789062 170.234375 94.929688 170.234375 94.929688 167.296875 C 94.929688 161.421875 94.195312 159.214844 94.929688 152.605469 C 95.664062 143.792969 98.601562 135.714844 100.804688 132.777344 C 103.742188 126.902344 106.679688 130.574219 111.085938 129.839844 C 111.820312 129.839844 112.558594 129.101562 113.292969 128.367188 C 113.292969 127.632812 112.558594 125.429688 113.292969 126.164062 C 115.496094 122.492188 130.917969 132.042969 139.730469 129.105469 C 141.933594 128.371094 143.402344 126.902344 142.667969 125.429688 C 141.933594 123.226562 139.730469 123.960938 138.261719 123.226562 C 136.792969 122.492188 133.121094 120.289062 134.589844 119.554688 C 136.058594 118.085938 141.199219 118.820312 143.402344 118.820312 C 149.277344 118.820312 156.621094 115.882812 161.765625 116.617188 C 163.96875 116.617188 165.4375 118.820312 167.640625 119.554688 C 170.578125 120.289062 170.578125 116.617188 172.78125 115.148438 C 176.453125 112.210938 184.53125 112.945312 190.40625 123.226562 C 191.875 125.429688 194.8125 123.960938 196.28125 121.023438 C 197.015625 118.820312 197.015625 118.820312 198.484375 119.554688 C 203.625 123.960938 198.484375 131.308594 199.953125 137.917969 C 202.15625 146.730469 212.441406 145.996094 214.644531 155.542969 C 216.113281 161.421875 213.175781 174.640625 227.863281 181.984375 C 229.332031 182.71875 230.800781 183.453125 232.269531 184.1875 L 233.738281 184.921875 C 238.144531 186.390625 235.941406 176.109375 241.082031 170.96875 C 243.285156 168.03125 244.753906 170.96875 246.222656 170.234375 C 247.691406 169.5 249.160156 158.484375 258.710938 153.339844 C 262.382812 151.136719 266.789062 151.136719 271.195312 154.074219 C 271.929688 154.074219 271.929688 154.074219 272.664062 154.074219 C 273.398438 154.808594 274.867188 154.074219 274.867188 152.605469 C 273.398438 146.730469 277.070312 143.792969 277.070312 141.589844 C 277.070312 140.121094 275.601562 140.121094 274.132812 139.386719 C 268.992188 133.511719 275.601562 130.574219 275.601562 125.429688 C 275.601562 123.960938 274.132812 123.226562 272.664062 123.226562 C 271.929688 123.226562 271.195312 123.226562 268.992188 120.289062 C 266.054688 115.882812 268.992188 111.476562 268.992188 106.335938 C 269.726562 101.929688 266.054688 104.132812 262.382812 100.460938 C 257.238281 95.316406 257.238281 84.300781 257.238281 83.566406 C 255.769531 79.160156 252.097656 82.832031 245.488281 78.425781 C 236.675781 73.285156 235.207031 65.9375 234.472656 65.203125 C 232.269531 60.796875 230.066406 66.671875 224.191406 65.9375 C 216.847656 65.9375 210.972656 59.328125 209.5 58.59375 C 204.359375 55.65625 205.09375 60.796875 198.484375 61.53125 C 191.140625 62.265625 187.46875 54.1875 183.0625 57.125 C 181.59375 57.859375 179.390625 62.265625 170.578125 61.53125 C 162.5 60.796875 160.296875 55.65625 155.886719 58.59375 C 153.683594 60.0625 152.214844 62.265625 145.605469 63 C 139.730469 63 137.527344 60.796875 136.058594 63 C 131.652344 70.347656 122.839844 76.957031 111.820312 74.753906 C 110.351562 74.753906 108.148438 73.285156 106.679688 75.488281 C 105.210938 77.691406 105.945312 79.160156 105.945312 81.363281 C 103.007812 96.785156 90.523438 95.316406 87.585938 98.253906 C 84.648438 101.195312 90.523438 106.335938 79.507812 111.476562 C 78.039062 112.210938 76.570312 112.210938 75.835938 113.679688 C 74.367188 115.882812 77.304688 118.085938 78.773438 120.289062 C 86.117188 123.960938 83.179688 126.898438 80.242188 133.511719 Z M 185.265625 57.125 C 174.25 68.140625 159.558594 58.59375 158.089844 58.59375 C 153.683594 61.53125 149.277344 65.203125 138.261719 63 C 130.917969 74.019531 118.433594 77.691406 110.351562 75.488281 C 108.882812 85.769531 104.476562 91.644531 94.929688 96.050781 C 89.054688 98.257812 91.257812 96.785156 90.523438 100.460938 C 89.789062 106.335938 86.117188 110.007812 80.976562 112.210938 C 85.382812 117.351562 89.054688 121.757812 86.851562 128.367188 C 84.648438 134.980469 83.914062 131.308594 87.585938 133.511719 C 92.726562 135.714844 91.257812 138.652344 91.992188 136.449219 C 94.929688 129.105469 97.867188 123.226562 105.210938 124.695312 C 108.882812 125.429688 106.679688 124.695312 107.414062 123.226562 C 111.820312 115.148438 125.777344 123.226562 130.917969 124.695312 C 127.246094 121.757812 127.246094 118.820312 129.449219 115.882812 C 132.386719 112.210938 138.261719 113.679688 141.199219 113.679688 C 147.074219 113.679688 154.417969 110.742188 160.296875 111.476562 C 162.5 111.476562 163.96875 112.945312 165.4375 113.679688 C 169.109375 107.070312 180.125 105.601562 188.203125 115.148438 C 190.40625 118.085938 189.671875 117.351562 190.40625 116.617188 C 192.609375 111.476562 197.75 113.679688 199.21875 116.617188 C 205.09375 124.695312 195.546875 132.777344 202.890625 139.386719 C 208.03125 144.527344 213.175781 145.261719 214.644531 153.339844 C 216.113281 159.21875 214.644531 165.09375 218.316406 170.96875 C 221.988281 176.84375 227.863281 178.3125 230.066406 179.78125 C 231.535156 173.171875 234.472656 162.890625 241.082031 165.09375 C 244.753906 152.605469 256.507812 143.058594 268.257812 148.933594 C 268.257812 145.261719 268.992188 143.058594 270.460938 140.121094 C 261.648438 133.511719 268.992188 126.164062 269.726562 123.226562 C 268.992188 123.226562 267.523438 123.226562 266.789062 122.492188 C 264.585938 121.023438 262.382812 118.085938 261.648438 115.148438 C 260.914062 112.210938 261.648438 109.273438 262.382812 106.335938 C 263.117188 102.664062 263.117188 104.867188 260.179688 103.398438 C 255.035156 100.460938 252.097656 93.113281 251.363281 87.238281 C 250.628906 80.628906 252.097656 84.300781 246.222656 82.832031 C 238.878906 80.628906 233.003906 74.753906 230.066406 69.609375 C 227.863281 65.9375 230.066406 66.671875 226.394531 68.140625 C 216.113281 71.816406 205.828125 61.53125 204.359375 60.796875 C 195.546875 67.40625 188.203125 57.859375 185.265625 57.125 Z M 108.882812 124.695312 C 108.148438 124.695312 108.148438 125.429688 108.148438 125.429688 C 108.882812 125.429688 108.882812 125.429688 108.882812 124.695312 Z M 108.882812 124.695312 " fill-opacity="1" fill-rule="evenodd"/></svg>