<svg _ngcontent-syw-c2="" fill="currentColor" xmlns="http://www.w3.org/2000/svg" focusable="false" aria-hidden="true" viewBox="0 0 21 21" width="15" transform=""><circle r="2.8875" transform="matrix(-1 0 0 1 18.1125 2.8875)" fill="currentColor"></circle><path fill-rule="evenodd" clip-rule="evenodd" d="M17.85 7.35003C15.5304 7.35003 13.65 5.46963 13.65 3.15003C13.65 2.51952 13.7889 1.92146 14.0379 1.3848H13.3483H4.76724C2.13437 1.3848 0 3.51916 0 6.15204V15.6865C0 18.3194 2.13437 20.4538 4.76724 20.4538H14.3017C16.9346 20.4538 19.069 18.3194 19.069 15.6865V8.05893V7.17041C18.6832 7.28722 18.2739 7.35003 17.85 7.35003ZM5.25 16.5598C4.69772 16.5598 4.25 16.1121 4.25 15.5598V12.4098C4.25 11.8575 4.69771 11.4098 5.25 11.4098C5.80228 11.4098 6.25 11.8575 6.25 12.4098V15.5598C6.25 16.1121 5.80228 16.5598 5.25 16.5598ZM8.45 15.5598C8.45 16.1121 8.89771 16.5598 9.45 16.5598C10.0023 16.5598 10.45 16.1121 10.45 15.5598V5.0598C10.45 4.50751 10.0023 4.0598 9.45 4.0598C8.89771 4.0598 8.45 4.50751 8.45 5.0598V15.5598ZM13.65 16.5598C13.0977 16.5598 12.65 16.1121 12.65 15.5598V8.2098C12.65 7.65751 13.0977 7.2098 13.65 7.2098C14.2023 7.2098 14.65 7.65751 14.65 8.2098V15.5598C14.65 16.1121 14.2023 16.5598 13.65 16.5598Z" fill="currentColor"></path></svg>