<svg _ngcontent-qok-c2="" fill="currentColor" xmlns="http://www.w3.org/2000/svg" focusable="false" aria-hidden="true" viewBox="0 0 20 20" width="20" transform=""><path d="M11.5 6.5H13.5V8.5C13.5 8.78125 13.7188 9 14 9H15C15.25 9 15.5 8.78125 15.5 8.5V6.5H17.5C17.75 6.5 18 6.28125 18 6V5C18 4.75 17.75 4.5 17.5 4.5H15.5V2.5C15.5 2.25 15.25 2 15 2H14C13.7188 2 13.5 2.25 13.5 2.5V4.5H11.5C11.2188 4.5 11 4.75 11 5V6C11 6.28125 11.2188 6.5 11.5 6.5ZM17.5938 13.4062L15.7812 12.5625L10.7188 14.8438C10.5 14.9688 10.25 15 10 15C9.71875 15 9.46875 14.9688 9.25 14.8438L4.1875 12.5625L2.375 13.4062C1.84375 13.625 1.84375 14.4062 2.375 14.6562L9.65625 17.9375C9.875 18.0312 10.0938 18.0312 10.3125 17.9375L17.5938 14.6562C18.125 14.4062 18.125 13.625 17.5938 13.4062ZM2.375 10.625L9.65625 13.9375C9.875 14.0312 10.0938 14.0312 10.3125 13.9375L16 11.375V10.7812C15.5 10.9375 15 11 14.5 11C11.7188 11 9.46875 9 9.0625 6.34375L2.375 9.375C1.84375 9.625 1.84375 10.4062 2.375 10.625Z" fill="currentColor"></path></svg>