<svg width="28" height="28" viewBox="0 0 28 28" fill="none" xmlns="http://www.w3.org/2000/svg">
<path d="M14 25.6667C7.55665 25.6667 2.33331 20.4433 2.33331 14C2.33331 7.55672 7.55665 2.33337 14 2.33337C20.4432 2.33337 25.6666 7.55672 25.6666 14C25.6595 20.4404 20.4403 25.6596 14 25.6667ZM13.9813 23.3334H14C19.1528 23.3282 23.3265 19.1482 23.324 13.9954C23.3214 8.84255 19.1435 4.66671 13.9906 4.66671C8.83781 4.66671 4.65989 8.84255 4.65731 13.9954C4.65473 19.1482 8.82849 23.3282 13.9813 23.3334ZM11.6666 19.8334L6.99998 15.1667L8.64498 13.5217L11.6666 16.5317L19.355 8.84337L21 10.5L11.6666 19.8334Z" fill="#21CD47"/>
</svg>
