<svg _ngcontent-clq-c2="" fill="currentColor" xmlns="http://www.w3.org/2000/svg" focusable="false" aria-hidden="true" viewBox="0 0 20 15" width="20" transform=""><path fill-rule="evenodd" clip-rule="evenodd" d="M16.0312 2.49999H13.75C13.109 2.49999 12.5806 2.01745 12.5084 1.39577L12.5 1.25C12.5 0.608954 12.9826 0.0806158 13.6042 0.0084096L13.75 0H18.75L18.793 0.000692605C18.8251 0.00177866 18.8573 0.00410228 18.8894 0.00766991L18.75 0C18.8172 0 18.8832 0.0053031 18.9475 0.0155139C18.9722 0.0194401 18.9972 0.0241854 19.022 0.0297021L19.0366 0.0330132L19.0962 0.0485783C19.1212 0.0557812 19.1461 0.0637897 19.1708 0.0726061C19.3111 0.122685 19.4402 0.19745 19.5525 0.291591C19.5562 0.294733 19.5599 0.297819 19.5635 0.300929L19.5816 0.316754C19.6116 0.343469 19.6402 0.371604 19.6675 0.401055L19.5635 0.300929C19.6084 0.339449 19.65 0.380466 19.688 0.423601C19.7132 0.452273 19.7373 0.482345 19.7601 0.51351C19.7675 0.523392 19.7747 0.533435 19.7816 0.543562C19.8012 0.57242 19.8197 0.601934 19.8369 0.632241C19.8454 0.646939 19.8536 0.662048 19.8614 0.677292C19.874 0.70181 19.8859 0.726766 19.8969 0.75216C19.9053 0.77163 19.9131 0.791011 19.9204 0.810547C19.9323 0.841821 19.9429 0.873831 19.9522 0.906383C19.9554 0.918355 19.9585 0.930116 19.9615 0.941916C19.9751 0.994628 19.9852 1.04887 19.9916 1.10422L20 1.25V6.24999C20 6.94034 19.4403 7.49998 18.75 7.49998C18.1089 7.49998 17.5806 7.01743 17.5084 6.39576L17.5 6.24999L17.5 4.62749L12.1991 10.8135C11.7591 11.3268 10.9997 11.3914 10.4812 10.9858L10.3661 10.8839L7.58377 8.10248L2.2103 14.5502C1.80235 15.0397 1.09936 15.1385 0.57649 14.8031L0.4498 14.7102C-0.0397492 14.3023 -0.138462 13.5993 0.196857 13.0764L0.289754 12.9497L6.53974 5.44976C6.97669 4.92542 7.74412 4.85457 8.26767 5.26327L8.3839 5.36611L11.1788 8.15998L16.0312 2.49999Z" fill="currentColor"></path></svg>