<svg xmlns="http://www.w3.org/2000/svg" xmlns:xlink="http://www.w3.org/1999/xlink" width="512" zoomAndPan="magnify" viewBox="0 0 384 383.999986" height="512" preserveAspectRatio="xMidYMid meet" version="1.0"><defs><clipPath id="babe52f535"><path d="M 86.847656 63 L 296.847656 63 L 296.847656 321 L 86.847656 321 Z M 86.847656 63 " clip-rule="nonzero"/></clipPath></defs><g clip-path="url(#babe52f535)"><path fill="#000000" d="M 274.808594 136.261719 C 269.53125 91.433594 237.925781 63.671875 191.585938 63.671875 C 145.226562 63.671875 113.636719 91.449219 108.378906 136.292969 C 97.167969 138.578125 86.847656 146.070312 86.847656 166.019531 L 86.847656 205.453125 C 86.847656 217.234375 89.964844 224.464844 96.671875 228.234375 C 100.738281 230.496094 105.824219 231.191406 111.332031 231.441406 C 114.960938 257.261719 121.425781 272.257812 131.542969 278.214844 C 133.355469 279.273438 134.933594 280.476562 136.5625 281.644531 C 136.375 304.558594 133.15625 315.320312 133.105469 315.429688 C 132.460938 317.484375 133.613281 319.667969 135.644531 320.316406 C 136.035156 320.433594 136.4375 320.488281 136.828125 320.488281 C 138.457031 320.488281 139.996094 319.4375 140.523438 317.789062 C 140.65625 317.34375 143.574219 307.796875 144.21875 287.5 C 145.253906 288.363281 146.320312 289.214844 147.320312 290.0625 C 158.214844 299.355469 169.492188 308.957031 191.585938 308.957031 C 213.691406 308.957031 224.960938 299.355469 235.859375 290.0625 C 236.859375 289.214844 237.925781 288.363281 238.960938 287.507812 C 239.585938 307.796875 242.53125 317.351562 242.65625 317.789062 C 243.191406 319.4375 244.714844 320.488281 246.359375 320.488281 C 246.746094 320.488281 247.136719 320.433594 247.539062 320.316406 C 249.574219 319.667969 250.707031 317.484375 250.078125 315.429688 C 250.046875 315.320312 246.828125 304.550781 246.625 281.644531 C 248.269531 280.476562 249.839844 279.273438 251.625 278.214844 C 261.769531 272.242188 268.210938 257.28125 271.839844 231.480469 C 285.355469 230.894531 296.511719 227.324219 296.511719 205.445312 L 296.511719 166.007812 C 296.511719 145.96875 286.085938 138.503906 274.808594 136.261719 Z M 191.585938 71.449219 C 233.683594 71.449219 261.472656 95.300781 266.878906 135.449219 C 266.589844 135.433594 266.265625 135.414062 265.976562 135.414062 L 117.382812 135.414062 C 117.011719 135.414062 116.65625 135.433594 116.300781 135.449219 C 121.699219 95.300781 149.503906 71.449219 191.585938 71.449219 Z M 247.699219 271.488281 C 241.125 275.347656 235.890625 279.8125 230.824219 284.128906 C 220.101562 293.277344 210.832031 301.171875 191.585938 301.171875 C 172.355469 301.171875 163.085938 293.285156 152.363281 284.128906 C 147.292969 279.8125 142.0625 275.339844 135.488281 271.488281 C 127.898438 267.03125 122.425781 253.550781 119.191406 231.605469 C 119.308594 231.605469 119.398438 231.605469 119.5 231.605469 C 119.53125 231.605469 138.421875 231.605469 140.574219 231.566406 C 156.992188 231.191406 167.898438 226.949219 174.851562 218.242188 C 181.425781 210.007812 188.65625 209.3125 191.195312 209.3125 C 191.195312 209.3125 191.230469 209.3125 191.246094 209.3125 L 192.089844 209.355469 L 192.511719 209.304688 C 194.59375 209.304688 201.878906 209.949219 208.5 218.242188 C 215.460938 226.957031 226.34375 231.191406 242.796875 231.566406 C 244.929688 231.605469 249.433594 231.613281 253.726562 231.613281 L 263.722656 231.605469 C 263.820312 231.605469 263.894531 231.605469 263.976562 231.605469 C 260.746094 253.535156 255.304688 267.015625 247.699219 271.488281 Z M 288.730469 205.445312 C 288.730469 222.933594 282.324219 223.820312 263.722656 223.820312 L 253.726562 223.828125 C 249.492188 223.828125 245.050781 223.820312 242.953125 223.777344 C 228.996094 223.46875 219.976562 220.148438 214.542969 213.371094 C 205.753906 202.371094 195.453125 201.507812 192.503906 201.507812 C 192.164062 201.507812 191.875 201.515625 191.660156 201.535156 C 191.46875 201.515625 191.171875 201.507812 190.832031 201.507812 C 187.882812 201.507812 177.5625 202.371094 168.773438 213.371094 C 163.367188 220.148438 154.355469 223.46875 140.398438 223.777344 C 138.28125 223.820312 133.859375 223.828125 129.609375 223.828125 L 119.613281 223.820312 C 119.566406 223.820312 119.515625 223.820312 119.464844 223.820312 C 111.875 223.820312 104.691406 223.808594 100.441406 221.433594 C 97.730469 219.890625 94.578125 216.695312 94.578125 205.445312 L 94.578125 166.007812 C 94.578125 155.390625 97.167969 143.195312 117.367188 143.195312 L 265.960938 143.195312 C 286.125 143.195312 288.714844 155.390625 288.714844 166.007812 L 288.714844 205.445312 Z M 288.730469 205.445312 " fill-opacity="1" fill-rule="nonzero"/></g><path fill="#000000" d="M 212.304688 251.125 C 204.8125 247.710938 192.195312 247.679688 191.667969 247.679688 C 191.136719 247.679688 178.539062 247.710938 171.046875 251.125 C 169.097656 251.992188 168.21875 254.3125 169.113281 256.269531 C 169.980469 258.222656 172.296875 259.101562 174.246094 258.199219 C 179.207031 255.953125 188.507812 255.457031 191.667969 255.457031 C 194.824219 255.457031 204.136719 255.953125 209.085938 258.199219 C 209.617188 258.429688 210.152344 258.546875 210.683594 258.546875 C 212.171875 258.546875 213.578125 257.695312 214.238281 256.269531 C 215.113281 254.3125 214.253906 251.992188 212.304688 251.125 Z M 212.304688 251.125 " fill-opacity="1" fill-rule="nonzero"/><path fill="#000000" d="M 201.078125 275.042969 C 198.769531 276.09375 194.082031 276.492188 191.660156 276.492188 C 190.046875 276.492188 184.863281 276.234375 182.257812 275.042969 C 180.308594 274.171875 177.992188 275.03125 177.109375 276.980469 C 176.238281 278.933594 177.089844 281.246094 179.042969 282.125 C 183.632812 284.210938 190.847656 284.269531 191.652344 284.269531 C 192.476562 284.269531 199.695312 284.210938 204.257812 282.125 C 206.226562 281.246094 207.085938 278.933594 206.195312 276.980469 C 205.324219 275.03125 203.035156 274.164062 201.078125 275.042969 Z M 201.078125 275.042969 " fill-opacity="1" fill-rule="nonzero"/><path fill="#000000" d="M 266.820312 152.140625 C 264.851562 152.996094 263.945312 155.289062 264.789062 157.261719 C 266.835938 162.03125 267.9375 174.351562 267.9375 183.507812 C 267.9375 193.066406 266.789062 205.640625 264.628906 210.109375 C 263.695312 212.039062 264.515625 214.367188 266.457031 215.300781 C 266.988281 215.566406 267.574219 215.691406 268.121094 215.691406 C 269.589844 215.691406 270.964844 214.878906 271.625 213.488281 C 275.660156 205.105469 275.710938 184.382812 275.710938 183.507812 C 275.710938 182.679688 275.660156 162.929688 271.929688 154.1875 C 271.078125 152.199219 268.789062 151.289062 266.820312 152.140625 Z M 266.820312 152.140625 " fill-opacity="1" fill-rule="nonzero"/></svg>